<svg xmlns="http://www.w3.org/2000/svg" width="26" height="24" fill="none">
  <path fill="#B0B0B0" fill-rule="evenodd" d="M17.693.015c-1.333.083-2.597.545-3.738 1.367-.495.356-12.468 12.27-12.875 12.812a5.396 5.396 0 0 0-1.012 4.08c.651 4.007 5.222 5.915 8.572 3.577.353-.246 10.527-10.32 11.253-11.141.605-.685.873-1.316.929-2.187.04-.61-.072-1.144-.365-1.748-.19-.391-.295-.535-.653-.893-.354-.353-.508-.466-.898-.657-.611-.301-1.053-.394-1.733-.364a3.2 3.2 0 0 0-.916.152c-.83.269-.598.058-6.306 5.732-3.645 3.623-5.295 5.296-5.359 5.432a.914.914 0 0 0 .424 1.197c.177.092.603.1.771.015.067-.034 2.46-2.389 5.32-5.232 4.95-4.922 5.215-5.177 5.521-5.31a1.664 1.664 0 0 1 2.324 1.26c.051.325-.022.755-.175 1.037-.086.156-1.882 1.977-5.68 5.758-5.424 5.4-5.564 5.535-5.954 5.733-1.067.543-2.249.573-3.27.084a3.549 3.549 0 0 1-2.05-3.258c0-.874.27-1.63.818-2.295.146-.177 2.957-3 6.248-6.275 6.468-6.438 6.298-6.281 7.238-6.682 3.62-1.545 7.595 1.178 7.418 5.082-.045.995-.34 1.89-.907 2.752-.181.276-1.634 1.755-6.339 6.455-4.31 4.306-6.126 6.151-6.18 6.28a.82.82 0 0 0 .018.706c.105.228.268.39.466.465.2.076.563.065.745-.021.235-.111 12.24-12.112 12.569-12.564.495-.682.761-1.182 1.012-1.9a7.007 7.007 0 0 0 .262-3.748c-.3-1.483-.978-2.704-2.083-3.757C21.646.566 19.755-.112 17.693.015Z" clip-rule="evenodd"/>
</svg>
