<svg xmlns="http://www.w3.org/2000/svg" width="16" height="13" fill="none">
  <path fill="#00819D" fill-rule="evenodd" d="M1.54.055C.82.211.205.836.054 1.568c-.074.354-.073 9.442 0 9.794.138.66.663 1.25 1.31 1.471l.224.077 6.313.009c6.923.01 6.554.02 6.988-.19.47-.228.866-.683 1.028-1.182l.082-.253V1.636l-.076-.244C15.721.74 15.126.194 14.466.054 14.126-.02 1.873-.017 1.539.055Zm12.748 1.06c.212.059.43.235.541.436.092.166.103.218.113.521l.01.337-3.47 2.246-3.47 2.246-3.47-2.246L1.07 2.41l.01-.337c.01-.303.02-.355.112-.521a.985.985 0 0 1 .526-.435c.151-.044 12.412-.046 12.57-.002Zm-9.82 4.77 3.36 2.178h.368l3.36-2.179a438.907 438.907 0 0 1 3.377-2.18c.01 0 .013 1.686.008 3.745l-.009 3.745-.073.139a1.056 1.056 0 0 1-.422.426l-.138.074-6.217.009c-4.163.006-6.258-.003-6.343-.026a.96.96 0 0 1-.547-.437l-.103-.185-.009-3.745c-.005-2.06 0-3.744.01-3.744.011 0 1.531.98 3.378 2.18Z" clip-rule="evenodd"/>
</svg>
