<svg xmlns="http://www.w3.org/2000/svg" width="24" height="24" fill="none">
  <path fill="#B0B0B0" fill-rule="evenodd" d="M4.739.074C3.56.258 2.537.787 1.664 1.66.776 2.548.258 3.565.074 4.78c-.099.662-.099 13.77 0 14.433a5.64 5.64 0 0 0 .873 2.274c.284.435 1.065 1.233 1.484 1.515a5.89 5.89 0 0 0 2.354.922c.662.1 13.768.1 14.43 0a5.888 5.888 0 0 0 2.346-.917c.381-.256 1.187-1.06 1.44-1.436.469-.699.802-1.55.924-2.358.1-.662.1-13.77 0-14.433-.183-1.216-.701-2.233-1.59-3.121C21.448.77 20.43.253 19.216.07 18.58-.026 5.35-.022 4.739.074Zm14.637 1.651c1.485.42 2.572 1.542 2.918 3.01.077.328.083.815.083 7.263 0 6.447-.006 6.935-.083 7.262-.35 1.48-1.459 2.615-2.943 3.011l-.394.105H12c-7.722 0-7.148.023-7.943-.308a4.005 4.005 0 0 1-2.41-3.125c-.036-.254-.047-2.393-.037-7.18.016-7.47-.005-6.913.28-7.637.416-1.054 1.362-1.95 2.45-2.32.603-.205.543-.204 7.777-.195l6.887.009.372.105Zm-4.149 4.011c-1.661.587-2.166 2.64-.961 3.913 1.232 1.302 3.392.826 3.994-.88.135-.382.151-1.024.036-1.413A2.428 2.428 0 0 0 16.64 5.7c-.39-.115-1.032-.098-1.414.036Zm1.18 1.589c.247.166.371.385.371.652 0 .906-1.202 1.14-1.524.296-.138-.36.03-.812.36-.975.234-.116.6-.103.793.027Zm-7.78 4.886c-.388.083-1.08.425-1.382.683-.364.311-3.927 4.242-3.999 4.411-.089.212-.048.593.083.777a.808.808 0 0 0 .988.253c.102-.051.879-.868 2.062-2.167 1.816-1.995 1.912-2.092 2.225-2.25.306-.153.356-.163.773-.162.48.001.736.081 1.066.333.087.066.987 1.031 1.999 2.144 1.012 1.112 1.897 2.048 1.966 2.08.297.135.715.037.93-.22.273-.323.263-.735-.025-1.07-.518-.601-3.489-3.83-3.728-4.052-.35-.324-1.014-.665-1.482-.763a4.272 4.272 0 0 0-1.476.003Zm6.863 1.273c-.197.029-.442.229-.525.428-.096.23-.06.606.075.796.161.227.35.301.852.337.499.035.827.163 1.115.435.086.082.684.724 1.329 1.427.644.704 1.226 1.307 1.294 1.341.503.256 1.043.03 1.183-.494.103-.387.04-.48-1.382-2.036-.705-.77-1.384-1.478-1.51-1.572-.686-.512-1.65-.775-2.43-.662Z" clip-rule="evenodd"/>
</svg>
