<svg viewBox="0 0 183 33" width="183" height="33" fill="none" xmlns="http://www.w3.org/2000/svg"><g clip-path="url(#a)"><path fill-rule="evenodd" clip-rule="evenodd" d="M15.118 26.908c-.62-1.026-1.68-1.688-2.761-2.207-2.143-1.031-3.214-3.41-3.214-7.135V4.572a4.572 4.572 0 1 0-9.143 0v13.27c0 4.783 1.324 8.477 3.971 11.083 2.679 2.605 6.419 3.908 11.221 3.908 1.894 0 2.558-2.294 1.396-3.789a22.353 22.353 0 0 1-1.47-2.136Z" fill="#49A399"/><path fill-rule="evenodd" clip-rule="evenodd" d="M30.384 28.83c0-2.018-1.75-3.519-3.252-4.866-1.395-1.251-2.092-3.382-2.092-6.393V4.561a4.561 4.561 0 0 0-9.122 0v13.286c0 4.784 1.32 8.48 3.962 11.086 1.733 1.69 3.911 2.832 6.535 3.426 2.139.485 3.97-1.336 3.97-3.53Z" fill="#00819D"/><path d="M47.344 27.418c-1.755 0-3.308-.321-4.66-.963-1.353-.66-2.413-1.567-3.181-2.722-.75-1.155-1.124-2.476-1.124-3.96V6.93c0-.422.137-.76.411-1.018a1.376 1.376 0 0 1 1.014-.412c.42 0 .759.138 1.015.412.274.257.411.596.411 1.018v12.843c0 .99.256 1.87.768 2.64.53.751 1.252 1.347 2.166 1.787.932.422 1.992.633 3.18.633 1.151 0 2.166-.211 3.043-.633.896-.44 1.59-1.036 2.084-1.787.511-.77.767-1.65.767-2.64V6.93c0-.422.137-.76.412-1.018a1.376 1.376 0 0 1 1.014-.412c.42 0 .758.138 1.014.412.256.257.384.596.384 1.018v12.843c0 1.485-.375 2.805-1.124 3.96-.731 1.154-1.755 2.062-3.07 2.722-1.317.642-2.824.963-4.524.963Zm33.604-.413c-.402 0-.74-.128-1.014-.385a1.437 1.437 0 0 1-.384-1.018v-7.864c0-1.155-.284-2.008-.85-2.558-.567-.568-1.307-.852-2.22-.852-.951 0-1.737.33-2.359.99-.603.66-.904 1.503-.904 2.53H70.94c0-1.192.256-2.237.768-3.135a5.476 5.476 0 0 1 2.138-2.145c.933-.514 1.993-.77 3.18-.77 1.042 0 1.965.229 2.77.687.804.458 1.425 1.137 1.864 2.035.457.88.685 1.953.685 3.218v7.864c0 .404-.128.743-.384 1.018-.255.257-.594.385-1.014.385Zm-18.286 0c-.402 0-.74-.128-1.015-.385a1.437 1.437 0 0 1-.383-1.018V13.365c0-.422.127-.76.383-1.018a1.428 1.428 0 0 1 1.015-.384c.42 0 .758.128 1.014.385.256.256.384.595.384 1.017v12.237c0 .404-.128.743-.384 1.018-.256.257-.594.385-1.014.385Zm9.157 0c-.403 0-.74-.128-1.015-.385a1.437 1.437 0 0 1-.384-1.018v-7.864c0-1.155-.283-2.008-.85-2.558-.566-.568-1.306-.852-2.22-.852-.95 0-1.736.33-2.358.99-.621.66-.932 1.503-.932 2.53h-1.727c0-1.192.237-2.237.713-3.135.475-.917 1.133-1.632 1.973-2.145.841-.514 1.8-.77 2.88-.77 1.041 0 1.964.229 2.768.687.804.458 1.426 1.137 1.864 2.035.457.88.686 1.953.686 3.218v7.864c0 .404-.128.743-.384 1.018-.256.257-.594.385-1.014.385Zm34.858 0c-.402 0-.74-.128-1.014-.385a1.437 1.437 0 0 1-.384-1.018v-7.864c0-1.155-.283-2.008-.85-2.558-.567-.568-1.307-.852-2.221-.852-.95 0-1.736.33-2.358.99-.603.66-.904 1.503-.904 2.53H96.67c0-1.192.256-2.237.768-3.135a5.477 5.477 0 0 1 2.138-2.145c.933-.514 1.993-.77 3.181-.77 1.041 0 1.964.229 2.769.687.804.458 1.425 1.137 1.864 2.035.457.88.685 1.953.685 3.218v7.864c0 .404-.128.743-.384 1.018-.255.257-.594.385-1.014.385Zm-18.286 0c-.402 0-.74-.128-1.015-.385a1.437 1.437 0 0 1-.383-1.018V13.365c0-.422.128-.76.383-1.018a1.428 1.428 0 0 1 1.015-.384c.42 0 .758.128 1.014.385.256.256.384.595.384 1.017v12.237c0 .404-.128.743-.384 1.018-.256.257-.594.385-1.014.385Zm9.157 0c-.402 0-.74-.128-1.015-.385a1.438 1.438 0 0 1-.384-1.018v-7.864c0-1.155-.283-2.008-.85-2.558-.566-.568-1.306-.852-2.22-.852-.95 0-1.736.33-2.358.99-.621.66-.932 1.503-.932 2.53h-1.727c0-1.192.237-2.237.713-3.135.475-.917 1.133-1.632 1.974-2.145.84-.514 1.8-.77 2.878-.77 1.042 0 1.965.229 2.77.687.803.458 1.425 1.137 1.863 2.035.457.88.686 1.953.686 3.218v7.864c0 .404-.128.743-.384 1.018-.256.257-.594.385-1.014.385Zm21.424.082c-1.334 0-2.531-.33-3.591-.99a7.366 7.366 0 0 1-2.522-2.722c-.604-1.155-.905-2.457-.905-3.905s.329-2.75.987-3.905a7.444 7.444 0 0 1 2.714-2.723c1.151-.678 2.44-1.017 3.866-1.017 1.425 0 2.705.34 3.838 1.018a7.24 7.24 0 0 1 2.687 2.722c.676 1.155 1.014 2.457 1.014 3.905h-1.069c0 1.448-.311 2.75-.932 3.905a7.16 7.16 0 0 1-2.495 2.723c-1.06.66-2.257.99-3.592.99Zm.549-2.474c.932 0 1.764-.22 2.494-.66a4.916 4.916 0 0 0 1.728-1.843c.42-.788.63-1.668.63-2.64 0-.99-.21-1.87-.63-2.64a4.659 4.659 0 0 0-1.728-1.842c-.73-.459-1.562-.688-2.494-.688a4.69 4.69 0 0 0-2.495.688 4.861 4.861 0 0 0-1.755 1.842c-.42.77-.63 1.65-.63 2.64 0 .972.21 1.852.63 2.64a5.142 5.142 0 0 0 1.755 1.843c.75.44 1.581.66 2.495.66Zm6.141 2.392a1.43 1.43 0 0 1-1.015-.385 1.441 1.441 0 0 1-.384-1.018v-4.207l.521-2.915 2.276.99v6.133c0 .403-.137.742-.411 1.017-.256.257-.585.385-.987.385Z" fill="#49A399"/><path d="m42.685 26.455-.3.618.007.003.293-.621Zm-3.18-2.722-.575.375.005.006.57-.381Zm-.713-17.82.468.502.008-.008.009-.008-.485-.487Zm2.029 0-.501.469.016.017.017.016.468-.503ZM42 22.413l-.57.38.005.009.005.008.56-.397Zm2.165 1.787-.296.62.007.003.008.004.281-.627Zm6.224 0 .296.62.005-.003-.301-.617Zm2.083-1.787-.57-.382-.002.003.572.379Zm1.18-16.5.467.502.008-.008.009-.008-.485-.487Zm2.028 0-.501.469.008.008.008.009.485-.487Zm-.74 17.82-.575-.375-.004.006.579.369Zm-3.07 2.722.299.618.007-.003-.307-.615Zm-4.524.275c-1.671 0-3.122-.305-4.368-.896l-.586 1.242c1.459.692 3.115 1.029 4.954 1.029V26.73Zm-4.361-.893c-1.253-.612-2.216-1.441-2.91-2.486l-1.14.763c.84 1.265 1.998 2.25 3.45 2.96l.6-1.237Zm-2.906-2.48c-.671-1.034-1.013-2.222-1.013-3.584h-1.37c0 1.607.407 3.06 1.234 4.335l1.15-.75Zm-1.013-3.584V6.93h-1.37v12.843h1.37Zm0-12.843c0-.257.076-.405.194-.515l-.936-1.005c-.43.403-.629.933-.629 1.52h1.371Zm.21-.531a.694.694 0 0 1 .53-.212V4.813a2.06 2.06 0 0 0-1.499.614l.97.973Zm.53-.212c.256 0 .404.076.514.195l1.002-.939c-.402-.431-.93-.63-1.516-.63v1.375Zm.547.228c.118.11.194.258.194.515h1.37c0-.587-.198-1.117-.629-1.52l-.935 1.005Zm.194.515v12.843h1.37V6.93h-1.37Zm0 12.843c0 1.115.29 2.13.882 3.02l1.14-.762c-.43-.649-.652-1.394-.652-2.258h-1.37Zm.893 3.037c.604.856 1.421 1.525 2.429 2.01l.593-1.24c-.82-.395-1.447-.918-1.903-1.564l-1.119.794Zm2.444 2.017c1.034.467 2.192.693 3.462.693v-1.375c-1.107 0-2.068-.196-2.899-.572l-.563 1.254Zm3.462.693c1.235 0 2.354-.226 3.339-.7l-.592-1.24c-.77.37-1.68.565-2.747.565v1.375Zm3.344-.703c.993-.488 1.787-1.16 2.355-2.026l-1.145-.757c-.419.638-1.015 1.157-1.813 1.549l.603 1.234Zm2.353-2.023c.592-.891.882-1.906.882-3.021h-1.37c0 .864-.221 1.61-.653 2.258l1.14.763Zm.882-3.021V6.93h-1.37v12.843h1.37Zm0-12.843c0-.257.076-.405.194-.515l-.935-1.005c-.43.403-.63.933-.63 1.52h1.371Zm.21-.531a.694.694 0 0 1 .53-.212V4.813a2.06 2.06 0 0 0-1.498.614l.969.973Zm.53-.212c.256 0 .404.076.514.195l1.002-.939c-.402-.431-.93-.63-1.515-.63v1.375Zm.53.212c.107.106.184.26.184.531h1.37c0-.572-.18-1.097-.584-1.504l-.97.973Zm.184.531v12.843h1.37V6.93h-1.37Zm0 12.843c0 1.362-.342 2.55-1.014 3.585l1.15.75c.827-1.276 1.234-2.728 1.234-4.335h-1.37Zm-1.018 3.591c-.659 1.041-1.585 1.867-2.798 2.476l.613 1.23c1.418-.711 2.54-1.7 3.342-2.969l-1.157-.737Zm-2.791 2.473c-1.209.589-2.612.893-4.224.893v1.375c1.787 0 3.4-.338 4.823-1.032l-.6-1.236Zm28.366.783-.502.47.017.016.017.017.468-.503Zm-1.234-11.44-.485.486.004.004.004.004.477-.494Zm-4.579.138-.498-.473-.004.004-.003.004.505.465Zm-.904 2.53v.687h.685v-.688h-.685Zm-2.276 0h-.685v.687h.685v-.688Zm.768-3.135.595.34.003-.005-.598-.335Zm2.138-2.145-.33-.603-.005.003.335.6Zm7.814 1.952-.616.302.004.008.004.008.608-.318Zm.301 12.1.485.486.008-.008.008-.009-.5-.469Zm-20.315 0-.5.47.015.016.017.017.468-.503Zm0-14.273-.468-.502-.008.008-.009.008.485.486Zm2.029 14.273.485.486.008-.008.008-.009-.501-.469Zm7.128 0-.501.47.016.016.017.017.468-.503Zm-1.234-11.44-.484.486.004.004.004.004.476-.494Zm-5.51 2.668v.687h.685v-.688h-.685Zm-1.727 0h-.686v.687h.686v-.688Zm.712-3.135.606.322.003-.005-.609-.317Zm9.486-.193-.615.302.003.008.004.008.608-.318Zm.302 12.1.485.486.008-.008.008-.009-.501-.469Zm8.115-.303a.746.746 0 0 1-.547-.2l-.935 1.006c.41.384.92.57 1.482.57v-1.376Zm-.514-.166a.751.751 0 0 1-.199-.549h-1.37c0 .564.184 1.075.567 1.487l1.002-.938Zm-.199-.549v-7.864h-1.37v7.864h1.37Zm0-7.864c0-1.256-.307-2.323-1.059-3.052l-.953.988c.382.37.641 1.009.641 2.064h1.371Zm-1.05-3.044c-.714-.716-1.638-1.054-2.706-1.054v1.375c.76 0 1.317.23 1.736.651l.97-.972ZM76.48 13.64c-1.128 0-2.098.4-2.856 1.205l.997.944c.484-.514 1.087-.774 1.86-.774V13.64Zm-2.863 1.213c-.736.805-1.085 1.823-1.085 2.995h1.371c0-.882.254-1.551.725-2.066l-1.01-.929Zm-.4 2.307h-2.275v1.375h2.276V17.16Zm-1.59.688c0-1.09.234-2.015.678-2.794l-1.19-.683c-.58 1.018-.858 2.184-.858 3.476h1.37Zm.68-2.8a4.79 4.79 0 0 1 1.876-1.88l-.67-1.2a6.161 6.161 0 0 0-2.401 2.409l1.196.671Zm1.871-1.878c.82-.451 1.764-.685 2.85-.685V11.11c-1.29 0-2.465.28-3.51.855l.66 1.205Zm2.85-.685c.939 0 1.742.205 2.43.598l.678-1.196c-.92-.524-1.962-.777-3.108-.777v1.375Zm2.43.598c.676.384 1.205.955 1.588 1.74l1.231-.605c-.494-1.013-1.208-1.799-2.141-2.33l-.677 1.195Zm1.596 1.755c.394.758.608 1.716.608 2.9h1.37c0-1.346-.243-2.534-.763-3.536l-1.215.636Zm.608 2.9v7.864h1.37v-7.864h-1.37Zm0 7.864c0 .244-.072.41-.2.549l1.002.938c.384-.412.569-.923.569-1.486h-1.371Zm-.183.532c-.107.107-.26.183-.53.183v1.375c.57 0 1.094-.18 1.499-.586l-.97-.972Zm-18.816.183a.746.746 0 0 1-.547-.2l-.935 1.006c.41.384.92.57 1.482.57v-1.376Zm-.514-.166a.751.751 0 0 1-.2-.549h-1.37c0 .564.185 1.075.568 1.487l1.002-.938Zm-.2-.549V13.365h-1.37v12.237h1.37Zm0-12.237c0-.271.077-.425.184-.531l-.97-.973c-.405.407-.584.932-.584 1.504h1.37Zm.167-.515a.746.746 0 0 1 .547-.2v-1.375c-.562 0-1.072.185-1.483.57l.936 1.005Zm.547-.2c.27 0 .423.077.53.184l.969-.973c-.406-.406-.929-.586-1.5-.586v1.375Zm.53.184c.106.107.182.26.182.531h1.371c0-.572-.18-1.097-.584-1.504l-.97.973Zm.182.531v12.237h1.371V13.365h-1.37Zm0 12.237c0 .244-.07.41-.2.549l1.003.938c.383-.412.568-.923.568-1.486h-1.37Zm-.183.532c-.106.107-.26.183-.53.183v1.375c.571 0 1.094-.18 1.5-.586l-.97-.972Zm8.627.183a.746.746 0 0 1-.546-.2l-.936 1.006c.411.384.92.57 1.482.57v-1.376Zm-.513-.166a.751.751 0 0 1-.2-.549h-1.37c0 .564.185 1.075.568 1.487l1.002-.938Zm-.2-.549v-7.864h-1.37v7.864h1.37Zm0-7.864c0-1.256-.307-2.323-1.058-3.052l-.953.988c.382.37.64 1.009.64 2.064h1.372Zm-1.05-3.044c-.714-.716-1.638-1.054-2.705-1.054v1.375c.76 0 1.316.23 1.736.651l.969-.972Zm-2.705-1.054c-1.129 0-2.098.4-2.856 1.205l.996.944c.485-.514 1.087-.774 1.86-.774V13.64Zm-2.856 1.205c-.758.805-1.12 1.825-1.12 3.002h1.371c0-.875.26-1.542.745-2.058l-.996-.944Zm-.434 2.315h-1.727v1.375h1.727V17.16Zm-1.042.688c0-1.1.218-2.03.633-2.813l-1.211-.645c-.536 1.014-.793 2.173-.793 3.457h1.371Zm.636-2.818c.42-.811.993-1.43 1.722-1.875l-.713-1.175c-.953.582-1.696 1.393-2.226 2.415l1.217.635Zm1.722-1.875c.723-.442 1.557-.67 2.522-.67V11.11c-1.192 0-2.277.285-3.235.87l.713 1.175Zm2.522-.67c.938 0 1.742.205 2.43.598l.677-1.196c-.92-.524-1.962-.777-3.107-.777v1.375Zm2.43.598c.675.384 1.205.955 1.588 1.74l1.23-.605c-.494-1.013-1.207-1.799-2.14-2.33l-.678 1.195Zm1.595 1.755c.394.758.608 1.716.608 2.9h1.371c0-1.346-.243-2.534-.763-3.536l-1.216.636Zm.608 2.9v7.864h1.371v-7.864h-1.37Zm0 7.864c0 .244-.07.41-.2.549l1.003.938c.383-.412.568-.923.568-1.486h-1.37Zm-.183.532c-.106.107-.26.183-.53.183v1.375c.57 0 1.094-.18 1.5-.586l-.97-.972Zm33.314.486-.501.47.017.016.017.017.467-.503Zm-1.233-11.44-.485.486.004.004.004.004.477-.494Zm-4.579.138-.498-.473-.003.004-.004.004.505.465Zm-.904 2.53v.687h.685v-.688h-.685Zm-2.276 0h-.685v.687h.685v-.688Zm.768-3.135.595.34.003-.005-.598-.335Zm2.138-2.145-.33-.603-.005.003.335.6Zm7.814 1.952-.616.302.004.008.004.008.608-.318Zm.301 12.1.485.486.008-.008.008-.009-.501-.469Zm-20.315 0-.5.47.015.016.017.017.468-.503Zm0-14.273-.468-.502-.008.008-.008.008.484.486Zm2.029 14.273.485.486.008-.008.008-.009-.501-.469Zm7.128 0-.501.47.016.016.017.017.468-.503Zm-1.234-11.44-.484.486.004.004.004.004.476-.494Zm-5.51 2.668v.687h.685v-.688h-.685Zm-1.727 0h-.686v.687h.686v-.688Zm.712-3.135.606.322.002-.005-.608-.317Zm9.486-.193-.615.302.003.008.004.008.608-.318Zm.302 12.1.484.486.009-.008.008-.009-.501-.469Zm8.115-.303a.748.748 0 0 1-.547-.2l-.935 1.006c.411.384.92.57 1.482.57v-1.376Zm-.513-.166c-.129-.138-.2-.305-.2-.549h-1.371c0 .564.185 1.075.568 1.487l1.003-.938Zm-.2-.549v-7.864h-1.371v7.864h1.371Zm0-7.864c0-1.256-.307-2.323-1.059-3.052l-.953.988c.382.37.641 1.009.641 2.064h1.371Zm-1.051-3.044c-.713-.716-1.637-1.054-2.705-1.054v1.375c.76 0 1.316.23 1.736.651l.969-.972Zm-2.705-1.054c-1.128 0-2.098.4-2.856 1.205l.997.944c.484-.514 1.087-.774 1.859-.774V13.64Zm-2.863 1.213c-.736.805-1.085 1.823-1.085 2.995h1.371c0-.882.254-1.551.725-2.066l-1.01-.929Zm-.4 2.307h-2.275v1.375h2.276V17.16Zm-1.59.688c0-1.09.234-2.015.678-2.794l-1.19-.683c-.58 1.018-.858 2.184-.858 3.476h1.37Zm.68-2.8a4.79 4.79 0 0 1 1.876-1.88l-.67-1.2a6.163 6.163 0 0 0-2.401 2.409l1.196.671Zm1.871-1.878c.82-.451 1.764-.685 2.85-.685V11.11c-1.289 0-2.465.28-3.51.855l.66 1.205Zm2.85-.685c.939 0 1.742.205 2.431.598l.677-1.196c-.92-.524-1.962-.777-3.108-.777v1.375Zm2.431.598c.675.384 1.204.955 1.587 1.74l1.231-.605c-.494-1.013-1.208-1.799-2.141-2.33l-.677 1.195Zm1.595 1.755c.394.758.608 1.716.608 2.9h1.37c0-1.346-.242-2.534-.762-3.536l-1.216.636Zm.608 2.9v7.864h1.37v-7.864h-1.37Zm0 7.864c0 .244-.072.41-.2.549l1.002.938c.384-.412.568-.923.568-1.486h-1.37Zm-.183.532c-.107.107-.259.183-.53.183v1.375c.57 0 1.094-.18 1.499-.586l-.969-.972Zm-18.816.183a.746.746 0 0 1-.547-.2l-.936 1.006c.411.384.92.57 1.483.57v-1.376Zm-.514-.166a.751.751 0 0 1-.2-.549h-1.37c0 .564.185 1.075.568 1.487l1.002-.938Zm-.2-.549V13.365h-1.37v12.237h1.37Zm0-12.237c0-.271.077-.425.184-.531l-.97-.973c-.405.407-.584.932-.584 1.504h1.37Zm.167-.515a.746.746 0 0 1 .547-.2v-1.375c-.562 0-1.072.185-1.483.57l.936 1.005Zm.547-.2c.27 0 .423.077.53.184l.969-.973c-.406-.406-.93-.586-1.5-.586v1.375Zm.53.184c.106.107.182.26.182.531h1.371c0-.572-.18-1.097-.584-1.504l-.97.973Zm.182.531v12.237h1.371V13.365h-1.37Zm0 12.237c0 .244-.07.41-.2.549l1.003.938c.383-.412.568-.923.568-1.486h-1.37Zm-.183.532c-.106.107-.26.183-.53.183v1.375c.57 0 1.094-.18 1.5-.586l-.97-.972Zm8.627.183a.746.746 0 0 1-.546-.2l-.936 1.006c.411.384.92.57 1.482.57v-1.376Zm-.513-.166a.751.751 0 0 1-.2-.549h-1.37c0 .564.185 1.075.568 1.487l1.002-.938Zm-.2-.549v-7.864h-1.37v7.864h1.37Zm0-7.864c0-1.256-.307-2.323-1.058-3.052l-.953.988c.382.37.64 1.009.64 2.064h1.372Zm-1.05-3.044c-.713-.716-1.637-1.054-2.705-1.054v1.375c.76 0 1.316.23 1.736.651l.969-.972Zm-2.705-1.054c-1.129 0-2.098.4-2.856 1.205l.996.944c.485-.514 1.087-.774 1.86-.774V13.64Zm-2.856 1.205c-.758.805-1.12 1.825-1.12 3.002h1.371c0-.875.26-1.542.745-2.058l-.996-.944Zm-.434 2.315h-1.727v1.375h1.727V17.16Zm-1.042.688c0-1.1.219-2.03.633-2.813l-1.211-.645c-.536 1.014-.793 2.173-.793 3.457h1.371Zm.635-2.818c.42-.811.994-1.43 1.723-1.875l-.713-1.175c-.953.582-1.696 1.393-2.226 2.415l1.216.635Zm1.723-1.875c.723-.442 1.557-.67 2.522-.67V11.11c-1.192 0-2.277.285-3.235.87l.713 1.175Zm2.522-.67c.938 0 1.742.205 2.43.598l.678-1.196c-.92-.524-1.963-.777-3.108-.777v1.375Zm2.43.598c.675.384 1.205.955 1.588 1.74l1.23-.605c-.493-1.013-1.207-1.799-2.14-2.33l-.678 1.195Zm1.595 1.755c.394.758.608 1.716.608 2.9h1.371c0-1.346-.243-2.534-.763-3.536l-1.216.636Zm.608 2.9v7.864h1.371v-7.864h-1.37Zm0 7.864c0 .244-.07.41-.2.549l1.003.938c.383-.412.568-.923.568-1.486h-1.37Zm-.183.532c-.106.107-.26.183-.53.183v1.375c.57 0 1.094-.18 1.5-.586l-.97-.972Zm17.304-.037-.369.58.007.005.362-.584Zm-2.523-2.722-.607.319.004.006.002.006.601-.331Zm.083-7.81-.591-.348-.004.007.595.341Zm2.714-2.723.344.595.003-.002-.347-.593Zm7.704 0-.351.59.006.005.345-.595Zm2.686 2.723-.595.341.004.007.591-.348Zm1.015 3.905v.688h.685v-.688h-.685Zm-1.07 0v-.688h-.685v.688h.685Zm-.932 3.905-.603-.326-.002.003.605.323Zm-2.494 2.723.361.584.007-.005-.368-.58Zm-.549-2.145.353.589.005-.003.005-.004-.363-.582Zm1.727-1.843.601.33.004-.006-.605-.324Zm0-5.28-.604.324.003.006.601-.33Zm-1.727-1.842-.363.582.005.004.006.003.352-.59Zm-4.989 0 .353.589.004-.002-.357-.587Zm-1.755 1.842-.598-.335-.003.005.601.33Zm0 5.28-.605.324.005.009.005.008.595-.341Zm1.755 1.843-.364.582.008.006.009.005.347-.593Zm7.621 2.667-.501.47.017.016.017.017.467-.503Zm-.384-5.225-.674-.121-.011.06v.061h.685Zm.521-2.915.273-.63-.794-.346-.153.855.674.121Zm2.276.99h.685v-.451l-.413-.18-.272.631Zm-8.088 6.93c-1.216 0-2.286-.299-3.23-.887l-.723 1.169c1.177.732 2.501 1.093 3.953 1.093V26.4Zm-3.223-.882a6.687 6.687 0 0 1-2.29-2.474l-1.202.662a8.053 8.053 0 0 0 2.755 2.971l.737-1.16Zm-2.283-2.462c-.547-1.046-.827-2.236-.827-3.586h-1.371c0 1.547.323 2.96.983 4.224l1.215-.638Zm-.827-3.586c0-1.34.303-2.522.897-3.564l-1.19-.682c-.723 1.268-1.078 2.689-1.078 4.246h1.371Zm.892-3.557a6.77 6.77 0 0 1 2.468-2.476l-.688-1.189a8.134 8.134 0 0 0-2.961 2.969l1.181.696Zm2.471-2.478c1.039-.612 2.207-.923 3.518-.923v-1.375c-1.538 0-2.948.368-4.212 1.113l.694 1.185Zm3.518-.923c1.313 0 2.469.311 3.488.92l.702-1.18c-1.248-.747-2.65-1.115-4.19-1.115v1.375Zm3.494.925a6.55 6.55 0 0 1 2.436 2.47l1.19-.683a7.922 7.922 0 0 0-2.937-2.976l-.689 1.19Zm2.44 2.476c.61 1.041.92 2.22.92 3.557h1.371c0-1.56-.365-2.984-1.109-4.253l-1.182.696Zm1.606 2.87h-1.07v1.374h1.07v-1.375Zm-1.755.687c0 1.346-.288 2.534-.85 3.579l1.206.652c.682-1.265 1.015-2.68 1.015-4.231h-1.371Zm-.852 3.582a6.453 6.453 0 0 1-2.258 2.466l.737 1.16a7.843 7.843 0 0 0 2.732-2.98l-1.211-.646Zm-2.251 2.461c-.943.588-2.014.887-3.23.887v1.375c1.453 0 2.777-.361 3.953-1.093l-.723-1.169Zm-2.682-.213c1.045 0 2-.248 2.848-.758l-.705-1.179c-.615.37-1.323.562-2.143.562V25.3Zm2.858-.765a5.589 5.589 0 0 0 1.965-2.095l-1.202-.66a4.222 4.222 0 0 1-1.489 1.59l.726 1.165Zm1.969-2.1c.478-.897.711-1.89.711-2.965h-1.37c0 .869-.187 1.636-.55 2.316l1.209.648Zm.711-2.965c0-1.09-.232-2.087-.715-2.97l-1.202.66c.359.657.547 1.42.547 2.31h1.37Zm-.711-2.964a5.34 5.34 0 0 0-1.979-2.108l-.705 1.179c.619.373 1.11.893 1.475 1.577l1.209-.648Zm-1.969-2.101c-.848-.533-1.808-.792-2.858-.792v1.375c.815 0 1.519.198 2.132.582l.726-1.165Zm-2.858-.792a5.37 5.37 0 0 0-2.851.787l.714 1.175a4.001 4.001 0 0 1 2.137-.587v-1.375Zm-2.847.785a5.543 5.543 0 0 0-2 2.097l1.196.67c.384-.69.886-1.213 1.51-1.588l-.706-1.179Zm-2.003 2.102c-.483.883-.715 1.88-.715 2.97h1.371c0-.89.188-1.653.546-2.31l-1.202-.66Zm-.715 2.97c0 1.075.234 2.068.711 2.964l1.209-.648c-.362-.68-.549-1.447-.549-2.316h-1.371Zm.721 2.981a5.824 5.824 0 0 0 1.986 2.084l.727-1.166a4.447 4.447 0 0 1-1.523-1.6l-1.19.682Zm2.003 2.095a5.524 5.524 0 0 0 2.841.754v-1.375c-.798 0-1.51-.19-2.148-.566l-.693 1.187Zm8.982 1.771a.745.745 0 0 1-.546-.2l-.935 1.006c.41.384.919.57 1.481.57v-1.376Zm-.513-.166a.753.753 0 0 1-.199-.549h-1.371c0 .564.185 1.075.568 1.487l1.002-.938Zm-.199-.549v-4.207h-1.371v4.207h1.371Zm-.011-4.086.521-2.915-1.349-.242-.521 2.915 1.349.242Zm-.427-2.405 2.276.99.545-1.262-2.275-.99-.546 1.262Zm1.863.359v6.133h1.371V19.47h-1.371Zm0 6.133a.7.7 0 0 1-.21.53l.969.973c.408-.41.612-.925.612-1.504h-1.371Zm-.21.53c-.113.114-.26.184-.503.184v1.375c.563 0 1.073-.185 1.472-.586l-.969-.972Z" fill="#49A399"/><path d="M135.051 26.977c-.403 0-.741-.137-1.015-.412a1.437 1.437 0 0 1-.384-1.018V6.93c0-.403.137-.742.412-1.018.274-.274.603-.412.987-.412.402 0 .74.138 1.014.412.274.276.411.615.411 1.018v17.188h9.925c.402 0 .74.137 1.014.412.274.275.411.614.411 1.017 0 .404-.137.743-.411 1.018a1.375 1.375 0 0 1-1.014.412h-11.35Zm17.59 0c-.403 0-.741-.128-1.015-.384a1.437 1.437 0 0 1-.384-1.018V13.338c0-.422.128-.761.384-1.018a1.428 1.428 0 0 1 1.015-.385c.42 0 .758.128 1.014.385s.384.596.384 1.018v12.237c0 .403-.128.742-.384 1.018-.256.256-.594.384-1.014.384Zm0-17.49c-.494 0-.923-.174-1.289-.522a1.82 1.82 0 0 1-.521-1.292c0-.495.174-.917.521-1.266.366-.366.795-.55 1.289-.55.493 0 .913.184 1.261.55.365.349.548.77.548 1.266 0 .495-.183.925-.548 1.292a1.717 1.717 0 0 1-1.261.523Zm8.218 17.49a1.33 1.33 0 0 1-.933-.384c-.274-.257-.411-.596-.411-1.018V12.018c0-1.32.256-2.466.768-3.438a5.655 5.655 0 0 1 2.193-2.255c.932-.55 2.011-.825 3.235-.825.402 0 .731.12.987.357.274.239.411.541.411.908 0 .348-.137.65-.411.908-.256.238-.585.357-.987.357-.676 0-1.27.156-1.782.468a3.28 3.28 0 0 0-1.206 1.292c-.274.55-.411 1.2-.411 1.953v13.832c0 .422-.128.76-.384 1.018-.256.256-.612.384-1.069.384Zm-2.523-12.127c-.383 0-.694-.11-.932-.33a1.08 1.08 0 0 1-.356-.825c0-.367.119-.66.356-.88.238-.22.549-.33.932-.33h6.772c.384 0 .695.11.932.33.238.22.357.513.357.88 0 .33-.119.605-.357.825-.237.22-.548.33-.932.33h-6.772Zm17.482 12.237c-1.517 0-2.869-.32-4.057-.962a7.382 7.382 0 0 1-2.769-2.695c-.658-1.155-.987-2.475-.987-3.96 0-1.503.31-2.823.932-3.96a6.902 6.902 0 0 1 2.632-2.695c1.115-.66 2.394-.99 3.838-.99 1.426 0 2.65.32 3.674.963 1.023.623 1.8 1.494 2.33 2.612.548 1.1.822 2.374.822 3.822 0 .349-.118.642-.356.88-.238.22-.539.33-.905.33h-11.048v-2.2h10.966l-1.124.77c-.018-.916-.201-1.732-.548-2.447a4.157 4.157 0 0 0-1.481-1.732c-.639-.422-1.416-.633-2.33-.633-1.042 0-1.937.23-2.687.688a4.438 4.438 0 0 0-1.672 1.897c-.384.788-.576 1.687-.576 2.695 0 1.008.229 1.907.685 2.695a5.018 5.018 0 0 0 1.892 1.87c.804.458 1.727.688 2.769.688.567 0 1.142-.101 1.727-.303.603-.22 1.088-.468 1.453-.743.275-.201.567-.302.878-.302.329-.018.612.073.85.275.31.275.475.578.493.908.018.33-.128.614-.439.852-.621.495-1.398.898-2.33 1.21-.914.312-1.791.467-2.632.467Z" fill="#00819D"/><path d="m134.036 26.565-.501.47.008.008.008.008.485-.486Zm2.44-2.448h-.685v.688h.685v-.688Zm-1.426 2.173a.693.693 0 0 1-.529-.211l-.97.972c.408.41.923.614 1.499.614V26.29Zm-.513-.194a.753.753 0 0 1-.199-.549h-1.371c0 .564.185 1.075.568 1.487l1.002-.938Zm-.199-.549V6.93h-1.371v18.617h1.371Zm0-18.617a.7.7 0 0 1 .21-.531l-.969-.973c-.408.41-.612.926-.612 1.504h1.371Zm.21-.531a.66.66 0 0 1 .502-.212V4.813c-.567 0-1.07.212-1.471.614l.969.973Zm.502-.212c.228 0 .39.07.53.212l.969-.973a2.059 2.059 0 0 0-1.499-.614v1.375Zm.53.212c.141.14.211.302.211.531h1.37c0-.578-.204-1.094-.612-1.504l-.969.973Zm.211.531v17.188h1.37V6.93h-1.37Zm.685 17.875h9.925V23.43h-9.925v1.375Zm9.925 0c.227 0 .389.07.529.211l.97-.972a2.06 2.06 0 0 0-1.499-.614v1.375Zm.529.211c.141.14.211.303.211.532h1.371c0-.579-.205-1.095-.612-1.504l-.97.972Zm.211.532c0 .228-.07.39-.211.53l.97.973c.407-.41.612-.925.612-1.503h-1.371Zm-.211.53a.693.693 0 0 1-.529.212v1.375a2.06 2.06 0 0 0 1.499-.614l-.97-.972Zm-.529.212H135.05v1.375h11.351V26.29Zm5.225.303-.501.469.016.017.017.016.468-.502Zm0-14.273-.468-.503-.008.008-.009.009.485.486Zm2.029 14.273.484.486.009-.009.008-.008-.501-.47Zm-2.303-17.628-.497.474.012.012.013.012.472-.498Zm2.55-2.558-.497.474.012.013.012.012.473-.498ZM152.64 26.29a.744.744 0 0 1-.546-.2l-.936 1.005c.411.385.92.57 1.482.57V26.29Zm-.513-.167a.753.753 0 0 1-.199-.548h-1.371c0 .564.185 1.075.568 1.487l1.002-.939Zm-.199-.548V13.338h-1.371v12.237h1.371Zm0-12.237c0-.272.076-.425.183-.532l-.97-.972c-.405.406-.584.931-.584 1.504h1.371Zm.166-.515a.744.744 0 0 1 .546-.2v-1.375c-.562 0-1.071.185-1.482.57l.936 1.005Zm.546-.2c.271 0 .424.076.53.183l.969-.972c-.405-.407-.928-.586-1.499-.586v1.375Zm.53.183c.107.107.183.26.183.532h1.371c0-.573-.179-1.098-.585-1.504l-.969.972Zm.183.532v12.237h1.371V13.338h-1.371Zm0 12.237c0 .243-.071.41-.199.548l1.002.939c.383-.412.568-.923.568-1.487h-1.371Zm-.183.531c-.106.107-.259.184-.53.184v1.375c.571 0 1.094-.18 1.499-.586l-.969-.973ZM152.64 8.8c-.313 0-.575-.104-.816-.333l-.944.996a2.49 2.49 0 0 0 1.76.712V8.8Zm-.791-.309a1.133 1.133 0 0 1-.333-.818h-1.37c0 .675.244 1.274.709 1.766l.994-.948Zm-.333-.818c0-.314.102-.56.32-.78l-.969-.972a2.415 2.415 0 0 0-.721 1.752h1.37Zm.32-.78c.244-.244.502-.348.804-.348V5.17c-.684 0-1.286.263-1.773.751l.969.973Zm.804-.348c.301 0 .544.103.765.336l.993-.947a2.356 2.356 0 0 0-1.758-.764v1.375Zm.789.36a.995.995 0 0 1 .335.768h1.371c0-.689-.263-1.289-.761-1.764l-.945.997Zm.335.768c0 .303-.103.561-.347.806l.969.972a2.46 2.46 0 0 0 .749-1.779h-1.371Zm-.347.806a1.033 1.033 0 0 1-.777.321v1.375c.675 0 1.27-.246 1.746-.724l-.969-.972Zm6.866.101-.602-.33-.002.004-.002.005.606.321Zm2.193-2.255.339.598.004-.003.004-.002-.347-.593Zm4.222-.468-.466.504.008.008.009.008.449-.52Zm0 1.816.466.503h.002l-.468-.503Zm-3.975 2.117-.605-.324-.004.008-.004.009.613.307Zm-1.865 16.5a.645.645 0 0 1-.464-.2l-.935 1.005c.39.365.864.57 1.399.57V26.29Zm-.464-.2c-.118-.11-.194-.258-.194-.515h-1.37c0 .587.198 1.117.629 1.52l.935-1.005Zm-.194-.515V12.018h-1.37v13.557h1.37Zm0-13.557c0-1.23.239-2.262.689-3.117l-1.212-.642c-.574 1.089-.847 2.349-.847 3.758h1.37Zm.684-3.108a4.97 4.97 0 0 1 1.931-1.987l-.678-1.196a6.348 6.348 0 0 0-2.456 2.523l1.203.66Zm1.939-1.992c.814-.48 1.769-.73 2.888-.73V4.813c-1.33 0-2.532.3-3.583.92l.695 1.185Zm2.888-.73c.257 0 .411.07.521.173l.932-1.007c-.401-.375-.906-.542-1.453-.542v1.375Zm.538.189a.464.464 0 0 1 .175.388h1.371c0-.564-.222-1.057-.648-1.427l-.898 1.039Zm.175.388c0 .141-.046.267-.194.405l.936 1.005c.4-.375.629-.855.629-1.41h-1.371Zm-.192.404c-.11.102-.264.174-.521.174v1.374c.547 0 1.052-.166 1.453-.54l-.932-1.008Zm-.521.174c-.785 0-1.505.182-2.138.567l.712 1.175c.391-.238.859-.368 1.426-.368V7.342Zm-2.138.567a3.972 3.972 0 0 0-1.455 1.556l1.209.648a2.6 2.6 0 0 1 .958-1.029l-.712-1.175Zm-1.463 1.573c-.331.664-.484 1.425-.484 2.26h1.371c0-.669.122-1.21.339-1.646l-1.226-.614Zm-.484 2.26v13.832h1.371V11.743h-1.371Zm0 13.832c0 .271-.077.425-.183.531l.969.973c.406-.407.585-.932.585-1.504h-1.371Zm-.183.531c-.096.096-.259.184-.585.184v1.375c.589 0 1.138-.169 1.554-.586l-.969-.973Zm-3.107-11.944c-.245 0-.379-.066-.467-.147l-.93 1.01c.387.359.875.512 1.397.512v-1.375Zm-.467-.147a.393.393 0 0 1-.136-.32h-1.371c0 .518.196.977.577 1.33l.93-1.01Zm-.136-.32c0-.202.058-.303.136-.375l-.93-1.01c-.397.368-.577.854-.577 1.385h1.371Zm.136-.375c.088-.081.222-.148.467-.148v-1.375c-.522 0-1.01.154-1.397.513l.93 1.01Zm.467-.148h6.772v-1.375h-6.772v1.375Zm6.772 0c.246 0 .379.067.467.148l.93-1.01c-.387-.359-.875-.513-1.397-.513v1.375Zm.467.148c.078.072.136.173.136.375h1.371c0-.53-.18-1.017-.577-1.385l-.93 1.01Zm.136.375a.393.393 0 0 1-.136.32l.93 1.01c.381-.353.577-.812.577-1.33h-1.371Zm-.136.32c-.088.081-.221.147-.467.147v1.375c.522 0 1.01-.153 1.397-.512l-.93-1.01Zm-.467.147h-6.772v1.375h6.772v-1.375Zm6.652 11.963-.336.6.006.002.006.003.324-.605Zm-2.769-2.695-.595.341.004.006.003.005.588-.352Zm-.054-7.92-.599-.334-.002.004.601.33Zm2.632-2.695.341.596.007-.004-.348-.592Zm7.511-.027-.363.583.008.004.355-.588Zm2.331 2.612-.619.295.003.006.003.006.613-.307Zm.466 4.702.465.506.01-.01.01-.01-.485-.486Zm-11.953.33h-.686v.688h.686v-.688Zm0-2.2v-.687h-.686v.688h.686Zm10.966 0 .386.568 1.833-1.255h-2.219v.688Zm-1.124.77-.685.014.025 1.271 1.046-.717-.386-.567Zm-.548-2.447-.62.295.003.006.617-.301Zm-6.498-1.678-.357-.587-.006.005.363.582Zm-1.672 1.898.616.302.002-.006-.618-.296Zm6.497 7.645.223.65.006-.002.005-.002-.234-.646Zm1.453-.743-.405-.554-.006.005.411.55Zm.878-.302v.688h.019l.019-.002-.038-.686Zm.849.275.454-.515-.005-.005-.006-.005-.443.525Zm.055 1.76-.416-.546-.005.004-.005.004.426.538Zm-2.33 1.21-.217-.652-.004.001.221.651Zm-2.632-.22c-1.418 0-2.656-.299-3.733-.88l-.649 1.21c1.299.702 2.766 1.045 4.382 1.045V26.4Zm-3.721-.874a6.698 6.698 0 0 1-2.517-2.448l-1.177.704a8.073 8.073 0 0 0 3.021 2.942l.673-1.198Zm-2.51-2.437c-.593-1.04-.897-2.24-.897-3.619h-1.371c0 1.59.354 3.03 1.077 4.301l1.191-.682Zm-.897-3.619c0-1.406.29-2.61.848-3.63l-1.202-.66c-.685 1.253-1.017 2.69-1.017 4.29h1.371Zm.846-3.626a6.21 6.21 0 0 1 2.374-2.433l-.682-1.192a7.581 7.581 0 0 0-2.89 2.957l1.198.668Zm2.381-2.437c.997-.59 2.154-.895 3.49-.895v-1.375c-1.552 0-2.955.356-4.187 1.086l.697 1.184Zm3.49-.895c1.321 0 2.414.297 3.31.859l.727-1.167c-1.151-.721-2.507-1.067-4.037-1.067v1.375Zm3.318.863c.905.552 1.592 1.32 2.067 2.32l1.238-.59c-.586-1.236-1.452-2.21-2.594-2.905l-.711 1.175Zm2.073 2.332c.493.99.75 2.155.75 3.515h1.371c0-1.536-.291-2.918-.895-4.13l-1.226.615Zm.75 3.515a.51.51 0 0 1-.156.394l.97.973c.37-.372.557-.843.557-1.366h-1.371Zm-.136.375c-.094.088-.222.148-.44.148v1.375c.514 0 .989-.16 1.37-.512l-.93-1.01Zm-.44.148h-11.048v1.375h11.048v-1.375Zm-10.363.688v-2.2h-1.371v2.2h1.371Zm-.685-1.513h10.966v-1.375h-10.966v1.375Zm10.579-1.255-1.124.77.773 1.135 1.124-.77-.773-1.135Zm-.052 1.324c-.02-1.001-.22-1.918-.617-2.735l-1.233.602c.298.613.463 1.328.48 2.16l1.37-.027Zm-.614-2.729a4.845 4.845 0 0 0-1.723-2.012l-.753 1.149c.528.348.941.827 1.237 1.453l1.239-.59Zm-1.723-2.012c-.772-.509-1.686-.745-2.707-.745v1.374c.806 0 1.446.185 1.954.52l.753-1.149Zm-2.707-.745c-1.144 0-2.168.252-3.044.787l.714 1.175c.623-.382 1.39-.588 2.33-.588v-1.375Zm-3.05.791a5.12 5.12 0 0 0-1.928 2.185l1.237.592a3.756 3.756 0 0 1 1.417-1.61l-.726-1.167Zm-1.925 2.18c-.436.895-.645 1.899-.645 2.996h1.37c0-.92.175-1.712.507-2.393l-1.232-.604Zm-.645 2.996c0 1.117.254 2.137.778 3.04l1.185-.69c-.39-.673-.593-1.45-.593-2.35h-1.37Zm.778 3.04a5.705 5.705 0 0 0 2.145 2.123l.678-1.196a4.329 4.329 0 0 1-1.638-1.617l-1.185.69Zm2.145 2.123c.92.524 1.963.777 3.108.777v-1.375c-.938 0-1.742-.205-2.43-.598l-.678 1.196Zm3.108.777c.649 0 1.3-.116 1.95-.34l-.446-1.3c-.519.18-1.02.265-1.504.265v1.375Zm1.961-.344c.643-.235 1.194-.51 1.63-.838l-.822-1.1c-.295.221-.713.44-1.276.646l.468 1.292Zm1.625-.834a.77.77 0 0 1 .472-.17v-1.375c-.471 0-.903.156-1.283.436l.811 1.109Zm.51-.17a.484.484 0 0 1 .369.113l.885-1.05a1.848 1.848 0 0 0-1.33-.436l.076 1.372Zm.358.104c.211.186.257.328.263.43l1.368-.077c-.031-.558-.313-1.02-.724-1.384l-.907 1.03Zm.263.43c.003.058-.002.138-.171.268l.833 1.092c.452-.347.74-.834.706-1.437l-1.368.077Zm-.181.276c-.546.434-1.247.804-2.121 1.096l.434 1.304c.99-.331 1.843-.768 2.539-1.324l-.852-1.076Zm-2.125 1.097c-.853.291-1.655.431-2.411.431v1.375c.926 0 1.878-.172 2.853-.504l-.442-1.302Z" fill="#00819D"/></g><defs><clipPath id="a"><path fill="#fff" d="M0 0h183v33H0z"/></clipPath></defs></svg>