<svg xmlns="http://www.w3.org/2000/svg" width="400" height="423" fill="none">
  <path fill="#DFE0E8" d="M0 0h400v423H0z"/>
  <path fill="#DFE0E8" stroke="#D5D6DD" d="m179.168 206.936-.051-.008-.051.004c-7.684.5-17.312-2.061-24.594-4.605l.919-26.164 50.127-1.025-1.082 28.421c-2.8 1.161-5.487 2.106-8.15 2.829-5.833.85-11.973 1.273-17.118.548Z"/>
  <path fill="#D0D1D7" d="M249.771 218.475s19.585 8.55 27.992 22.357c8.407 13.807 31.601 143.639 31.601 143.639h-51.5c-14.287 0-8.093-165.996-8.093-165.996ZM118.851 206.304s-27.835 11.452-40.452 29.876c-12.617 18.425-16.035 148.29-16.035 148.29h61c10.301 0-1.534-177.836-4.513-178.166Z"/>
  <path fill="#D5D6DD" fill-rule="evenodd" d="M249.723 218.471c12.925 7.096 20.872 53.537 23.435 135.886.938 30.113 2.206 30.113 2.206 30.113h-186s10.675-66.907 12.525-137.38c0 0 1.037-31.026 13.283-38.852 8.063-5.162 20.677-8.146 28.342-9.607l.134.059c2.319 1.031 21.792 9.681 35.398 8.784 14.374 2.037 36.535-4.852 36.535-4.852l.004-.048c10.169 4.408 25.874 11.378 34.138 15.897Z" clip-rule="evenodd"/>
  <path fill="#D0D1D7" d="M174.872 207.468s-2.617 38.5-2.437 150.193l12.929-.138s.681-133.656.949-150.382l-11.441.327Z"/>
  <path fill="#D5D6DD" d="M233.093 133.919s17.498-37.725-8.627-72.142C198.342 27.36 148.21 54.33 148.21 54.33s-18.345-5.229-24.717 20.583c-6.371 25.812 3.959 57.815 10.375 69.054 6.464 11.245 91.277 9.836 99.225-10.049Z"/>
  <path fill="#DFE0E8" d="M135.892 94.78s-3.817 42.465 3.365 63.585c7.182 21.12 31.602 23.718 48.388 23.362 16.737-.362 35.01-5.799 38.719-33.756 3.709-27.958 1.543-36.779-.967-47.213 0 0-23.045-1.74-37.425-17.082 0 0 6.448 14.496 9.732 17.768 0 0-37.348-4.013-46.559-26.782.004-.048-11.725 7.439-15.253 20.118Z"/>
  <path fill="#D5D6DD" d="M132.864 116.97s-2.47 20.2 4.847 41.333 32.101 23.765 49.133 23.432c16.983-.338 36.295-4.31 40.02-32.266 2.5-29 1.5-25.5 1.5-32.498 0 0-13.648 45.984-28.869 45.964l-31.964-.044s-12.468 1.751-21.846-21.033c-4.943-12.009-12.821-24.888-12.821-24.888Z"/>
  <path fill="#D0D1D7" d="m179.1 207.432 1.375-8.902s-.506-5.437 8.104-7.149c8.611-1.711 24.95-3.518 24.95-3.518l2.106 14.717c-.005.048-22.213 6.933-36.535 4.852ZM179.099 207.431l-.463-8.978s.942-5.349-7.57-7.756c-8.513-2.406-24.59-5.43-24.59-5.43l-3.001 13.264c-.005.048 21.161 9.864 35.624 8.9Z"/>
  <rect width="7" height="16" x="179.364" y="157.471" fill="#D5D6DD" rx="3.5"/>
</svg>
