<svg xmlns="http://www.w3.org/2000/svg" width="14" height="16" fill="none">
  <path fill="currentColor" fill-rule="evenodd" d="M3.17.857A3.206 3.206 0 0 0 .585 3.193l-.07.26v9.094l.07.258a3.204 3.204 0 0 0 2.695 2.35c.371.045 7.079.043 7.454-.001 1.26-.151 2.35-1.104 2.68-2.342l.07-.265V7.203l-.071-.246c-.247-.854-.267-.878-2.613-3.233C8.32 1.236 8.21 1.145 7.36.915L7.046.831 5.234.824C3.88.818 3.358.827 3.17.857ZM7.037 1.9l.115.038.012 1.304.012 1.304.084.293a3.197 3.197 0 0 0 2.287 2.243c.31.083.324.084 1.583.097l1.271.013.042.161c.072.28.06 4.841-.014 5.13a2.261 2.261 0 0 1-1.617 1.614c-.253.063-7.371.063-7.624 0a2.261 2.261 0 0 1-1.617-1.614c-.086-.338-.086-8.63 0-8.968.2-.784.884-1.465 1.617-1.607l.234-.047c.163-.034 3.505.002 3.615.039Zm4.596 4.25c-.939.084-1.94-.042-2.383-.299-.8-.465-1.061-1.065-1.062-2.446v-.828L9.969 4.36l1.782 1.782-.118.01ZM7.26 7.558c-.563.195-.76.565-.76 1.43 0 .542-.004.58-.055.557-.123-.053-.683-.053-.87 0-1.111.32-1.457 1.765-.612 2.556a1.526 1.526 0 0 0 2.316-.285c.206-.321.202-.29.22-1.811.02-1.6.004-1.526.302-1.47.395.074.634.357.683.809.082.762 1.016.718 1.016-.048 0-1.159-1.207-2.095-2.24-1.738Zm-1.018 3.036c.407.247.233.874-.242.874a.5.5 0 0 1-.242-.062c-.407-.248-.233-.875.242-.875a.5.5 0 0 1 .242.063Z" clip-rule="evenodd"/>
</svg>
