<svg xmlns="http://www.w3.org/2000/svg" width="16" height="16" fill="none">
  <path fill="currentColor" fill-rule="evenodd" d="M5.39.833c-2.844.172-4.201 1.39-4.522 4.059-.059.492-.059 5.724 0 6.216.299 2.486 1.437 3.653 3.913 4.008.514.074 5.7.085 6.312.014 2.486-.29 3.675-1.442 4.022-3.896.039-.275.051-.774.062-2.5l.013-2.156-.072-.139c-.19-.368-.655-.386-.891-.035-.07.103-.072.124-.072.929v.823h-1.133c-1.865 0-2.06.107-2.766 1.518-.407.814-.47.908-.69 1.037l-.145.086-1.37.009c-1.86.012-1.68.098-2.273-1.087-.722-1.445-.933-1.562-2.821-1.562h-1.12l.015-1.493c.018-1.701.053-2.06.262-2.71.426-1.327 1.352-1.932 3.179-2.078.221-.018 1.257-.032 2.3-.032H9.49l.105-.071c.35-.236.333-.703-.034-.89l-.137-.07-1.94.005A140.4 140.4 0 0 0 5.39.833ZM4.202 9.271c.217.117.311.256.705 1.038.502 1 .704 1.224 1.3 1.449.247.093 3.052.126 3.394.04.698-.175.969-.446 1.502-1.505.587-1.167.474-1.104 1.967-1.105h1.085v.539c0 2.96-.8 4.08-3.124 4.372-.468.06-5.633.06-6.063.001-2.343-.32-3.125-1.41-3.125-4.356v-.56l1.117.01c1.077.009 1.122.012 1.242.077Z" clip-rule="evenodd"/>
  <path fill="currentColor" fill-rule="evenodd" d="M12.208.861C10.55 1.175 9.66 3.005 10.439 4.5c.945 1.815 3.563 1.783 4.482-.054.915-1.831-.7-3.966-2.713-3.585Zm.826 1.04c1.126.295 1.487 1.707.64 2.5a1.466 1.466 0 0 1-2.478-.966c-.07-.997.874-1.785 1.838-1.533Z" clip-rule="evenodd"/>
</svg>
