<svg xmlns="http://www.w3.org/2000/svg" width="15" height="16" fill="none">
  <path fill="#00819D" fill-rule="evenodd" d="M7.216.05a.658.658 0 0 0-.347.44l-.023.144-.443.085c-2.21.428-4.06 2.109-4.663 4.237-.19.667-.218.95-.247 2.397l-.027 1.368-.125.366c-.155.456-.385.83-.76 1.242-.398.435-.55.756-.577 1.217-.01.19 0 .428.025.545.148.694.73 1.28 1.414 1.422.127.027.735.043 1.613.043h1.41l.066.24c.216.782.848 1.526 1.613 1.899.506.246.756.304 1.322.305.563 0 .908-.081 1.38-.328.734-.384 1.346-1.123 1.555-1.876l.066-.24h1.41c.878 0 1.486-.016 1.612-.043.684-.143 1.266-.728 1.414-1.422a2.52 2.52 0 0 0 .025-.545c-.025-.445-.185-.795-.534-1.172-.41-.444-.59-.714-.752-1.133-.173-.443-.198-.659-.198-1.695-.001-1.807-.146-2.585-.674-3.623-.302-.594-.62-1.028-1.128-1.541A5.86 5.86 0 0 0 8.476.706L8.088.638 8.065.493c-.06-.372-.494-.599-.85-.443Zm.94 1.85c1.792.272 3.345 1.638 3.848 3.386.162.56.181.762.198 2.048.018 1.316.051 1.632.23 2.169.19.573.504 1.094.958 1.59.308.338.342.412.312.678-.022.199-.111.34-.296.465l-.126.087H1.654l-.13-.088c-.204-.138-.303-.316-.303-.545 0-.227.032-.284.362-.64.408-.438.725-.978.918-1.557.18-.54.216-.873.221-2.002.005-1.193.035-1.568.167-2.092.121-.483.47-1.196.798-1.63 1.055-1.4 2.786-2.124 4.47-1.869Zm1.035 11.685c-.002.09-.273.483-.463.67-.701.691-1.773.702-2.499.025-.189-.177-.487-.6-.487-.693 0-.017.776-.031 1.725-.031.948 0 1.724.013 1.724.029Z" clip-rule="evenodd"/>
</svg>
