<svg xmlns="http://www.w3.org/2000/svg" width="16" height="16" fill="none">
  <path fill="#00819D" fill-rule="evenodd" d="M7.417.021c-.606.1-.853.28-1.117.821-.217.447-.489.653-1.121.854-.378.12-.601.116-.923-.017-.328-.136-.664-.16-.932-.065-.27.095-.565.307-.939.677-.406.402-.627.707-.712.98-.087.282-.078.432.048.811.136.413.143.632.03.967-.184.55-.443.93-.719 1.058-.432.199-.529.258-.672.415-.279.305-.36.626-.36 1.435 0 .638.03.853.158 1.127.13.275.265.4.634.59.393.2.54.341.708.673.178.354.274.678.276.927.001.179-.018.266-.102.47-.196.477-.16.869.12 1.298.162.249.83.92 1.08 1.087.247.165.521.26.75.259.104 0 .275-.04.475-.11.504-.176.827-.136 1.428.176.378.197.47.293.663.694.243.505.47.694.976.808.257.059 1.402.059 1.659 0 .505-.114.733-.303.976-.808.193-.4.285-.497.663-.694.6-.312.924-.352 1.428-.176.647.226 1.018.104 1.701-.561.422-.41.598-.63.733-.917.092-.193.1-.238.1-.509-.002-.265-.013-.324-.107-.548-.137-.324-.142-.572-.019-.938.112-.333.303-.694.444-.84.064-.065.264-.193.454-.29.466-.24.644-.46.751-.936.054-.239.057-1.31.004-1.536-.131-.566-.358-.83-.898-1.049-.349-.141-.612-.498-.816-1.105-.112-.335-.105-.554.031-.967.126-.379.135-.53.048-.81-.082-.266-.301-.572-.675-.944-.35-.35-.598-.543-.852-.667-.16-.079-.213-.088-.492-.088-.285 0-.336.009-.564.104-.198.084-.292.105-.453.105-.376-.002-1.068-.278-1.328-.53-.07-.068-.18-.24-.262-.407-.23-.471-.42-.643-.848-.767C8.612.01 7.702-.026 7.417.02Zm1.192 1.033c.08.03.117.08.206.277.254.56.65.91 1.357 1.198.74.302 1.272.337 1.83.12.128-.05.264-.09.301-.09.146-.001.832.621 1.01.916l.072.118-.098.273c-.183.511-.18.954.012 1.528.29.866.672 1.352 1.291 1.645.309.146.321.156.36.284.06.2.055 1.168-.007 1.29-.035.069-.121.13-.332.235-.157.078-.35.196-.431.262-.436.358-.864 1.223-.96 1.94-.04.307-.007.601.1.892.141.382.142.393.044.54-.131.199-.628.7-.806.815l-.156.1-.192-.072c-.367-.136-.546-.165-.913-.148-.383.017-.686.098-1.127.302-.618.285-.955.597-1.208 1.115-.152.311-.165.327-.29.364-.08.024-.335.038-.676.038-.342 0-.597-.014-.678-.038-.124-.037-.136-.053-.289-.364-.253-.52-.586-.828-1.2-1.111-.449-.208-.75-.289-1.135-.306-.367-.017-.546.012-.913.148l-.192.072-.156-.1c-.178-.114-.675-.616-.806-.815-.098-.147-.097-.158.044-.54.107-.29.14-.585.1-.892-.096-.717-.524-1.582-.96-1.94a2.842 2.842 0 0 0-.431-.262c-.21-.105-.297-.166-.332-.235-.061-.122-.066-1.09-.006-1.29.038-.128.05-.138.359-.284.616-.29 1.002-.783 1.29-1.644.193-.575.196-1.017.013-1.529l-.098-.273.072-.118c.178-.295.864-.917 1.01-.917.037 0 .173.041.302.091.558.217 1.09.182 1.83-.12.712-.291 1.1-.635 1.356-1.2.117-.256.133-.268.413-.317.145-.026.922.006 1.02.042ZM7.526 5.047C6.225 5.25 5.197 6.316 5.02 7.646c-.112.841.186 1.757.782 2.4a3.01 3.01 0 0 0 2.698.916c1.803-.315 2.912-2.158 2.338-3.888a3.007 3.007 0 0 0-2.403-2.03 2.543 2.543 0 0 0-.91.003Zm1.05 1.05A1.981 1.981 0 0 1 9.95 7.605c.096.464.042.866-.174 1.305a2.017 2.017 0 0 1-1.78 1.095c-.927 0-1.767-.678-1.955-1.579-.234-1.116.497-2.188 1.635-2.395.223-.04.657-.009.902.066Z" clip-rule="evenodd"/>
</svg>
