<svg xmlns="http://www.w3.org/2000/svg" width="400" height="400" fill="none">
  <path fill="#DFE0E8" d="M0 0h400v400H0z"/>
  <path fill="#DFE0E8" d="M332.855 377.425s-7.2 5.5-24.3 5.9c-14.9-20.4-13.1-32.2-13.1-32.2l37.4 26.3Z"/>
  <path fill="#FFE3C5" d="M171.955 178.526s.7 15.2-3.7 20.1c-7.9-.5-19.6-1.2-19.6-1.2s-.8 17.3 32.5 24.3c33.3 7.1 41.6-14.2 41.6-14.2l-21.8-5.7s-.7-16.1 1.7-20c2.4-3.8-30.7-3.3-30.7-3.3Z"/>
  <path fill="#E0A168" d="M202.655 181.826c2.4-3.8-30.7-3.3-30.7-3.3s.2 3.4-.1 7.4c2.5 2.5 7 6 12.4 7.1 4.9 1 11.9-2.4 17-5.4.2-2.5.7-4.6 1.4-5.8Z"/>
  <path fill="#DFE0E8" d="M250.455 102.025s-8.3 38.8-12.3 51.4c-3.9 12.6-3.9 11.2-22.8 24.4-18.9 13.2-30.4 11.6-33.6 10.5-3.2-1-11.3-7.6-18.2-16.4-6.9-8.8-15.8-15.6-12.9-31.1 2.9-15.5 8.1-60.6 8.1-60.6s45.4-61.3 91.7 21.8Z"/>
  <path fill="#D0D1D7" d="M84.655 393.625h246.3s-12.7-21.2-24.5-44.2c-11.8-22.9-17.7-52-33.5-86-15.9-34-25.3-35.7-30.3-46.2s-40.1-19.5-40.1-19.5-8.4 14.9-22.1 12.1c-13.7-2.8-11.1-16.6-11.1-16.6s-7.8-.5-17.1-1.7-23.3-1.1-34.6 21.6c-11.3 22.8-50.636 156-49.636 180.5h16.636Z"/>
  <path fill="#DFE0E8" d="M248.355 343.324s19.6 38.5 24.8 50.3h-12.4s-6-29-12.4-50.3Z"/>
  <path fill="#DFE0E8" d="M94.055 372.824s11.9 2.6 22.1-18.9c0 0 10.6 6.9 24.9 11.3 14.4 4.4 24.8 8.4 45.7 5.1 21-3.3 38.8-2.2 50 1.3 11.2 3.5 18.6-1.7 18.6-1.7l-140-28.1-21.3 31ZM270.655 298.324c2.9 21.4 21.2 49.2 21.2 49.2s13.1 22.9 13.1 28.3c7.9.6 18.8 5.5 18.8 5.5-4.7-8.3-11.2-19.8-17.4-31.8-7.5-14.6-12.7-31.8-19.5-51.1l-29.4-60.6h-14.8s.8 7.4 8 15 17.1 24.1 20 45.5Z"/>
  <path fill="#D0D1D7" d="M153.555 122.325s16.5-40.2 46.7-34.3c30.3 5.9 37.5 52.8 37.5 52.8s13.3-34.9 8.5-51c-4.8-16.2-34.3-27-48.6-30.1-14.2-3.1-51.2 24.6-44.1 62.6Z"/>
  <path fill="#D5D6DD" d="M312.255 338.426c-7-19.1-17.4-45.3-26.2-58.4-8.8-13-18.7-31-22.4-40.6-3.7-9.6-18.8-24.7-20.2-26.5-1.5-1.8-4.6-5.5-3-14 1.6-8.5 3.8-19.9 12.6-39.4s32.7-91.7-40.1-115.8c-7.2-2.4-56.6-9.8-70.4 44.6-13.7 54.5-1.5 59.3-7.9 80.2-6.4 20.9-9.8 23.3-27.5 57.2-17.7 33.8-32.9 68.7-37.3 75.6 2.5 12.3 12.8 31.4 34.8 40.7 22.1 9.3 32.3 17.2 51.2 21.1 18.9 3.9 31.7 2 49.9 2.5s42.7 6.9 53.5 3.4c0-8.3-13.7-30.9-15.7-62.8-1.6-26.7-6-59.3-4.6-80.4.2.7 2.7 15.2 10.6 21.6 8.1 6.6 20.4 22.3 24.9 45.5 2.2 30.9 18 60.6 34.6 77.1 7.4.7 18.4 6.2 23.9 7.3-11.7-15.5-13.7-19.7-20.7-38.9Zm-85.7-168.4c-2.7 1.9-30.6 22.4-44.7 18.3-3.2-1-11.3-7.6-18.2-16.4-6.9-8.8-15.8-15.6-12.9-31.1 1.3-6.7 2.9-18.9 4.4-30.6 2-8.8 4.6-17.4 7.6-22.3 7.9-12.9 35.8-24.3 42.4-22.1 6.6 2.2 36.5 27.7 35.2 51-1.3 23.3-4.3 38.6-13.8 53.2Z"/>
  <path fill="#D0D1D7" d="M141.055 149.326s12.5 10.9 21 20.6c8.5 9.7 17.3 17.9 36.7 23.3 19.4 5.4 30.1 9.9 39 16.6 0 0-33.4-12.6-43.2-13.9-9.8-1.2-22.3-7.6-32.6-20.6-10.3-13-20.9-26-20.9-26ZM250.455 96.326s-3.5 56.6-23.9 73.7c0 0 25.6-14.8 23.9-73.7ZM155.955 78.926s-10.6 54.9-5.6 70.4c0 0-11.3-12.5 5.6-70.4Z"/>
  <path fill="#D0D1D7" d="M237.755 168.625s-12.2 21.9-28.3 28.7c-.1.1 18.4 2.2 28.3-28.7ZM227.155 212.326c.7-.7-22.3 17.7-62.1 6.1 0 .1 35.1 21.4 62.1-6.1ZM222.055 220.426s-17.7 75.1-77.5 115.3c-.1 0 56.9-54.4 77.5-115.3ZM196.155 239.625s-47.2 33.1-81.1 7c0 0 22.8 40.1 81.1-7ZM246.055 209.827s-9.5-2.5-11.5-2.2c-2.1.3-4.8 5.4-1.9 7.8 2.9 2.4 12 1 16.1 3.4 1.7-1.2.8-6.2-2.7-9Z"/>
  <path fill="#D0D1D7" d="M239.155 217.025s4 31-15.1 66.8c0-.1 13.7-36.7 15.1-66.8Z"/>
</svg>
