<svg xmlns="http://www.w3.org/2000/svg" width="12" height="12" fill="none">
  <path fill="#F5581F" d="M5.417 11.991s-7.42.624-2.576-8.678c0 0 .168 3.025.835 2.541 1.1-.796-.818-3.82 3.356-5.854 0 0-.584 3.246 1.718 5.52 0 0-.24-1.672 1.512-2.777 0 0-1.134 1.674.069 4.116.569 1.157 1.784 5.132-4.914 5.132Z"/>
  <path fill="#F98D25" d="M4.571 5.873s.506.494.475.894c0 0 1.234-1.477 1.234-3.496 0 0 2.467 3.712 2.15 6.454 0 0 .634-.216.697-.832 0 0 .348 3.104-2.911 3.104S2.388 9.72 3.179 8.615c.373-.52 1.74-.924 1.392-2.742Z"/>
  <path fill="#FFF200" d="M6.553 7.41s2.088 4-.225 4.535c-1.815.42-2.343-1.84-.989-2.775 1.355-.935 1.214-1.76 1.214-1.76Z"/>
</svg>
