<svg xmlns="http://www.w3.org/2000/svg" width="24" height="24" fill="none">
  <path fill="url(#a)" d="M12 22.4c5.588 0 10.118-4.656 10.118-10.4 0-5.744-4.53-10.4-10.118-10.4C6.41 1.6 1.88 6.256 1.88 12c0 5.744 4.531 10.4 10.12 10.4Z"/>
  <path fill="url(#b)" d="M12 22.4c5.588 0 10.118-4.656 10.118-10.4 0-5.744-4.53-10.4-10.118-10.4C6.41 1.6 1.88 6.256 1.88 12c0 5.744 4.531 10.4 10.12 10.4Z"/>
  <path fill="#303030" d="M8.288 13.277c.539 0 .975-.826.975-1.845 0-1.019-.436-1.845-.975-1.845-.539 0-.976.826-.976 1.845 0 1.019.437 1.845.976 1.845Z"/>
  <path stroke="#303030" stroke-linecap="round" stroke-linejoin="round" stroke-miterlimit="10" d="m7.08 8.8 2.481 1.968"/>
  <path fill="#303030" d="M16.92 11.432c0 1.009-.424 1.845-.976 1.845-.53 0-.975-.836-.975-1.845 0-1.008.424-1.845.975-1.845.552 0 .976.837.976 1.845Z"/>
  <path stroke="#303030" stroke-linecap="round" stroke-linejoin="round" stroke-miterlimit="10" d="m16.9 8.8-2.482 1.968"/>
  <path stroke="#5B0600" stroke-linecap="round" stroke-linejoin="round" stroke-miterlimit="10" d="M8.8 16s2.683-1.8 6.4 0"/>
  <defs>
    <linearGradient id="a" x1="3.224" x2="20.999" y1="17.205" y2="7.22" gradientUnits="userSpaceOnUse">
      <stop stop-color="#EBB34D"/>
      <stop offset=".033" stop-color="#ECB64D"/>
      <stop offset=".178" stop-color="#EEC04F"/>
      <stop offset=".551" stop-color="#F1CC51"/>
      <stop offset="1" stop-color="#F3D652"/>
    </linearGradient>
    <linearGradient id="b" x1="11.998" x2="11.998" y1="1.603" y2="22.413" gradientUnits="userSpaceOnUse">
      <stop stop-color="#DD5F70"/>
      <stop offset=".162" stop-color="#DD636F" stop-opacity=".968"/>
      <stop offset=".686" stop-color="#EBAA5D" stop-opacity=".362"/>
      <stop offset="1" stop-color="#F3D652" stop-opacity="0"/>
    </linearGradient>
  </defs>
</svg>
