<svg xmlns="http://www.w3.org/2000/svg" width="24" height="24" fill="none">
  <g clip-path="url(#a)">
    <path fill="#00819D" d="M23.457 1.913v9.217l-4.364.87-1.636-.87-.364-9.217L18.184.696l4.182.174 1.091 1.043Z"/>
    <path fill="#FACCB4" d="M17.453 1.218v10.434l-2.909 3.13-2.545 5.392-.182 2.087-.728 1.044-1.818-.348-1.09-2.087 1.454-5.218-.546-1.217-4.909.348-2.727-1.043-.364-2.783V6.609L2.18 4l.91-2.26L5.816.521l11.636.696Z"/>
    <path fill="#E2A88A" fill-rule="evenodd" d="M11.316 23.968c.417-.125.74-.445.918-.91.14-.363.213-.968.176-1.463l-.031-.429.286-.698c.947-2.308 2.12-4.517 3.015-5.68.196-.254.543-.636.771-.849a4.89 4.89 0 0 0 1.015-1.259l.226-.379.325.108c.316.105.371.107 2.232.109 2.031 0 2.15-.01 2.618-.242.412-.204.83-.69 1.024-1.189.087-.223.092-.447.106-4.53.01-2.66-.003-4.407-.033-4.591-.142-.892-.89-1.62-1.798-1.747-.167-.023-1.042-.043-1.944-.043-1.796 0-2.099.031-2.533.262l-.24.126-.88-.102C14.314.201 12.73.104 9.532.03 7.768-.01 7.02-.01 6.517.03 4.527.19 3.035.806 2.28 1.78c-.43.553-.603 1.063-.61 1.798-.005.463-.007.472-.162.634-.443.464-.777 1.034-.91 1.552-.11.43-.102 1.112.017 1.566l.096.364-.147.208c-.39.553-.604 1.255-.556 1.83.037.454.229 1.02.466 1.377l.196.295-.073.207c-.2.575-.2 1.302.005 1.848.13.348.49.835.804 1.09 1.194.967 3.524 1.18 6.552.6.406-.078.768-.141.805-.141.055 0 .061.074.035.4-.039.498-.181 1.09-.552 2.298-.363 1.18-.475 1.685-.535 2.405-.051.619-.013 1.162.116 1.632.288 1.053 1.154 1.89 2.236 2.159.386.095 1.041.13 1.254.067Zm-1.02-1.409c-.72-.236-1.087-.732-1.188-1.603-.082-.714.058-1.526.498-2.902.463-1.447.635-2.338.597-3.093-.045-.88-.452-1.361-1.151-1.362-.095 0-.55.074-1.013.165-1.424.28-1.796.32-3.01.324-.894.003-1.194-.013-1.543-.082-1.453-.288-1.976-1.099-1.446-2.241.239-.515.225-.612-.153-1.063-.673-.804-.645-1.518.094-2.372.264-.305.29-.554.1-.976-.124-.272-.138-.356-.139-.82 0-.476.01-.537.14-.796.098-.193.274-.407.565-.685.249-.238.436-.46.457-.538.019-.073.007-.327-.027-.565-.071-.505-.027-.793.178-1.16.35-.626 1.282-1.094 2.656-1.335.403-.07.745-.08 2.47-.072 3.297.016 5.838.149 7.958.416l.217.027-.016 4.161c-.01 2.907.001 4.312.04 4.66.055.496.055.5-.083.845-.245.611-.51.989-1.098 1.567-.91.894-1.639 1.958-2.553 3.728a39.908 39.908 0 0 0-1.54 3.346l-.319.785.011.694c.006.381-.006.772-.027.87-.036.162-.051.175-.207.175a1.98 1.98 0 0 1-.467-.098Zm8.02-11.507a1.282 1.282 0 0 1-.26-.238c-.1-.132-.101-.143-.101-4.439V2.068l.13-.19c.23-.34.288-.348 2.29-.332 1.676.013 1.75.017 1.878.11.073.053.178.155.233.226.098.129.1.17.112 4.412l.013 4.283-.11.203c-.207.38-.196.378-2.235.378-1.777 0-1.792-.001-1.95-.106Z" clip-rule="evenodd"/>
    <path fill="#00819D" d="M18.208 12.8h5.184c.336 0 .608-.3.608-.67V.68c0-.371-.272-.671-.608-.68h-3.888c-.745.009-1.391.483-1.704 1.173-.128.282-.2.6-.2.938v10.018c0 .37.272.671.608.671Z"/>
  </g>
  <defs>
    <clipPath id="a">
      <path fill="#fff" d="M0 0h24v24H0z"/>
    </clipPath>
  </defs>
</svg>
