<svg xmlns="http://www.w3.org/2000/svg" width="24" height="24" fill="none">
  <path fill="#F5581F" d="M10.836 23.983S-4.005 25.23 5.683 6.626c0 0 .337 6.05 1.671 5.082C9.556 10.115 5.718 4.068 14.067 0c0 0-1.168 6.491 3.436 11.041 0 0-.48-3.346 3.023-5.554 0 0-2.267 3.346.137 8.232 1.139 2.314 3.57 10.264-9.827 10.264Z"/>
  <path fill="#F98D25" d="M9.142 11.747s1.013.986.95 1.787c0 0 2.467-2.954 2.467-6.992 0 0 4.935 7.424 4.302 12.908 0 0 1.266-.431 1.392-1.664 0 0 .696 6.208-5.821 6.208-6.518 0-7.656-4.552-6.073-6.763.744-1.042 3.48-1.848 2.783-5.484Z"/>
  <path fill="#FFF200" d="M13.109 14.822s4.176 7.997-.452 9.069c-3.63.84-4.685-3.682-1.976-5.552 2.708-1.869 2.428-3.517 2.428-3.517Z"/>
</svg>
