<svg xmlns="http://www.w3.org/2000/svg" width="24" height="24" fill="none">
  <path fill="url(#a)" d="M12 22.4c5.588 0 10.118-4.656 10.118-10.4 0-5.744-4.53-10.4-10.118-10.4C6.41 1.6 1.88 6.256 1.88 12c0 5.744 4.531 10.4 10.12 10.4Z"/>
  <path fill="#fff" d="M12 17.245c3.079 0 5.63-2.351 6.07-5.426.088-.452-.264-.904-.792-.904H6.632c-.44 0-.792.452-.792.904.528 3.075 3.08 5.426 6.16 5.426Z"/>
  <path fill="#303030" d="M10.374 7.386C9.984 6.304 9.044 5.6 7.988 5.6c-1.039 0-1.964.686-2.353 1.732a.487.487 0 0 0 .146.56c.162.126.373.108.52-.054.762-.83 1.98-1.498 3.408.036A.37.37 0 0 0 10 8a.346.346 0 0 0 .227-.072c.146-.108.211-.343.146-.542ZM18.365 7.386C17.976 6.304 17.036 5.6 15.983 5.6c-1.036 0-1.96.686-2.349 1.732a.487.487 0 0 0 .146.56c.162.126.373.108.519-.054.761-.83 1.976-1.498 3.402.036a.37.37 0 0 0 .291.126.345.345 0 0 0 .227-.072c.162-.108.227-.343.146-.542Z"/>
  <defs>
    <linearGradient id="a" x1="3.224" x2="20.999" y1="17.205" y2="7.22" gradientUnits="userSpaceOnUse">
      <stop stop-color="#EBB34D"/>
      <stop offset=".033" stop-color="#ECB64D"/>
      <stop offset=".178" stop-color="#EEC04F"/>
      <stop offset=".551" stop-color="#F1CC51"/>
      <stop offset="1" stop-color="#F3D652"/>
    </linearGradient>
  </defs>
</svg>
