<svg xmlns="http://www.w3.org/2000/svg" width="24" height="24" fill="none">
  <path fill="#D94B4B" fill-rule="evenodd" d="M6.283 1.614c-1.21.152-2.195.493-3.085 1.065C1.818 3.568.826 4.846.333 6.371c-.888 2.746-.01 5.579 2.753 8.877.533.636 2.298 2.398 3.056 3.05a42.555 42.555 0 0 0 4.294 3.237c1.37.903 1.522.965 1.925.782.306-.139 2.13-1.364 3.066-2.06 1.693-1.26 2.9-2.298 4.208-3.62 2.495-2.523 3.85-4.738 4.277-6.99.118-.62.117-1.82 0-2.414-.56-2.82-2.64-4.91-5.492-5.518-.633-.135-1.948-.145-2.585-.02a7.202 7.202 0 0 0-3.415 1.673l-.41.358-.435-.375a9.558 9.558 0 0 0-.756-.59A7.447 7.447 0 0 0 8.175 1.7c-.41-.073-1.574-.125-1.893-.085Z" clip-rule="evenodd"/>
</svg>
