<svg xmlns="http://www.w3.org/2000/svg" width="24" height="24" fill="none">
  <path fill="url(#a)" d="M12 22.4c5.588 0 10.118-4.656 10.118-10.4 0-5.744-4.53-10.4-10.118-10.4C6.41 1.6 1.88 6.256 1.88 12c0 5.744 4.531 10.4 10.12 10.4Z"/>
  <path stroke="#303030" stroke-linecap="round" stroke-linejoin="round" stroke-miterlimit="10" d="M14.4 12s.27.8 1.6.8c1.262 0 1.6-.8 1.6-.8M6.4 12s.27.8 1.6.8c1.262 0 1.6-.8 1.6-.8"/>
  <path stroke="#5B0600" stroke-linecap="round" stroke-linejoin="round" stroke-miterlimit="10" d="M10.4 18.4s1.341-1.8 3.2 0"/>
  <path fill="#91B5E6" d="m17.974 13.645.992 2.73a1.105 1.105 0 0 1-.677 1.42 1.105 1.105 0 0 1-1.42-.676 1.056 1.056 0 0 1 0-.745l.992-2.729c.023-.022.045-.045.09-.045 0 .023.023.023.023.045Z"/>
  <defs>
    <linearGradient id="a" x1="3.224" x2="20.999" y1="17.205" y2="7.22" gradientUnits="userSpaceOnUse">
      <stop stop-color="#EBB34D"/>
      <stop offset=".033" stop-color="#ECB64D"/>
      <stop offset=".178" stop-color="#EEC04F"/>
      <stop offset=".551" stop-color="#F1CC51"/>
      <stop offset="1" stop-color="#F3D652"/>
    </linearGradient>
  </defs>
</svg>
