<svg xmlns="http://www.w3.org/2000/svg" width="24" height="24" fill="none">
  <path fill="url(#a)" d="M12 22.4c5.588 0 10.118-4.656 10.118-10.4 0-5.744-4.53-10.4-10.118-10.4C6.41 1.6 1.88 6.256 1.88 12c0 5.744 4.531 10.4 10.12 10.4Z"/>
  <path fill="#303030" d="M12 19.359c1.326 0 2.401-1.827 2.401-4.08s-1.075-4.079-2.4-4.079c-1.326 0-2.401 1.826-2.401 4.08 0 2.252 1.075 4.079 2.4 4.079Z"/>
  <path fill="#F06669" d="M14.03 17.468c-1.752-.967-3.176-.415-4.005.127.436 1.063 1.158 1.764 1.976 1.764.85 0 1.604-.755 2.03-1.891Z"/>
  <path fill="#fff" d="M9.606 11.132c.795-1.544.512-3.228-.632-3.763-1.145-.535-2.717.282-3.511 1.825-.795 1.543-.512 3.228.632 3.763 1.145.535 2.717-.282 3.511-1.825ZM17.929 12.959c1.144-.535 1.427-2.22.633-3.763-.795-1.543-2.367-2.36-3.512-1.825-1.144.535-1.427 2.22-.632 3.762.794 1.544 2.366 2.361 3.51 1.826Z"/>
  <path fill="#414042" d="M16.877 6.366a.435.435 0 0 1-.44-.44V.44c0-.247.194-.44.44-.44s.44.193.44.44v5.486a.46.46 0 0 1-.44.44ZM18.899 5.469a.435.435 0 0 1-.44-.44V1.073c0-.247.193-.44.44-.44.246 0 .44.193.44.44v3.956c0 .247-.194.44-.44.44ZM20.94 8.388a.435.435 0 0 1-.44-.44V2.04c0-.246.193-.44.44-.44.246 0 .44.194.44.44v5.909c0 .246-.194.44-.44.44Z"/>
  <defs>
    <linearGradient id="a" x1="3.224" x2="20.999" y1="17.205" y2="7.22" gradientUnits="userSpaceOnUse">
      <stop stop-color="#EBB34D"/>
      <stop offset=".033" stop-color="#ECB64D"/>
      <stop offset=".178" stop-color="#EEC04F"/>
      <stop offset=".551" stop-color="#F1CC51"/>
      <stop offset="1" stop-color="#F3D652"/>
    </linearGradient>
  </defs>
</svg>
