<svg xmlns="http://www.w3.org/2000/svg" width="24" height="24" fill="none">
  <g clip-path="url(#a)">
    <path fill="#FFD15C" d="M14.819 18.367a5.652 5.652 0 0 1 1.704-2.61 6.86 6.86 0 0 0 2.457-5.27c0-3.915-3.259-7.128-7.269-6.927-3.559.15-6.466 3.162-6.567 6.726a6.88 6.88 0 0 0 2.457 5.471 5.386 5.386 0 0 1 1.754 2.61h5.464Z"/>
    <path fill="#fff" d="M11.437 18.49h.448l-1.988-7.474h.149c.248 0 .497-.1.696-.3.099-.101.198-.151.347-.151.15 0 .249.05.348.15a.844.844 0 0 0 1.293 0c.1-.1.199-.15.348-.15.1 0 .248.05.348.15.199.2.397.301.696.301h.149l-1.939 7.474h.447l2.039-7.825c0-.1 0-.2-.1-.25-.1-.05-.199 0-.248.05-.1.1-.2.15-.299.15-.149 0-.248-.05-.397-.15-.2-.201-.398-.301-.646-.301-.25 0-.448.1-.647.3-.199.201-.497.201-.696 0a.799.799 0 0 0-.646-.3c-.248 0-.497.1-.646.3-.1.1-.248.15-.398.15-.1 0-.248-.05-.298-.15-.05-.05-.149-.1-.248-.05-.1.05-.15.15-.1.251l1.988 7.825Z"/>
    <path fill="#344A5E" d="M10.498 22.95c.25.6.85 1.05 1.55 1.05.7 0 1.3-.45 1.55-1.05h-3.1Z"/>
    <path fill="#344A5E" d="M13.9 23h-3.65c-.5 0-.9-.4-.9-.9v-3.8h5.45v3.8c0 .5-.4.9-.9.9Z"/>
    <path fill="#FFD15C" d="M12.049 0c-.25 0-.5.2-.5.5v1.7c0 .25.2.5.5.5s.5-.2.5-.5V.5c0-.3-.25-.5-.5-.5ZM5.352 3.05c-.2-.2-.5-.2-.7 0-.2.2-.2.5 0 .7l1.2 1.2c.2.2.5.2.7 0 .2-.2.2-.5 0-.7l-1.2-1.2ZM3.8 9.95H2.1a.501.501 0 0 0 0 1h1.7c.25 0 .5-.2.5-.5 0-.25-.25-.5-.5-.5ZM5.852 15.95l-1.2 1.2c-.2.2-.2.5 0 .7.2.2.5.2.7 0l1.2-1.2c.2-.2.2-.5 0-.7-.2-.2-.5-.2-.7 0ZM18.25 15.95c-.2-.2-.5-.2-.7 0-.2.2-.2.5 0 .7l1.2 1.2c.2.2.5.2.7 0 .2-.2.2-.5 0-.7l-1.2-1.2ZM22 9.95h-1.7a.501.501 0 0 0 0 1H22a.501.501 0 0 0 0-1ZM18.75 3.05l-1.2 1.2c-.2.2-.2.5 0 .7.2.2.5.2.7 0l1.2-1.2c.2-.2.2-.5 0-.7-.2-.2-.5-.2-.7 0Z"/>
  </g>
  <defs>
    <clipPath id="a">
      <path fill="#fff" d="M0 0h24v24H0z"/>
    </clipPath>
  </defs>
</svg>
