<svg width="24" height="26" viewBox="0 0 24 26" fill="none" xmlns="http://www.w3.org/2000/svg">
<path fill-rule="evenodd" clip-rule="evenodd" d="M12.2212 21.2853C11.7283 20.4864 10.8992 19.9703 10.0452 19.5807C8.28129 18.7761 7.39935 16.886 7.39935 13.9104V3.69967C7.39935 1.6564 5.74294 0 3.69967 0C1.6564 0 0 1.6564 0 3.69967V14.1289C0 17.916 1.07128 20.8413 3.21386 22.9048C5.38134 24.9682 8.40835 26 12.2949 26C13.8103 26 14.3394 24.1565 13.3996 22.9677C12.9749 22.4305 12.5812 21.8689 12.2212 21.2853Z" fill="#009D94"/>
<path fill-rule="evenodd" clip-rule="evenodd" d="M23.9998 22.8257C23.9998 21.2291 22.6089 20.0383 21.4468 18.9435C20.3904 17.9484 19.8622 16.272 19.8622 13.9143V3.53121C19.8622 1.58097 18.2812 0 16.331 0C14.3808 0 12.7998 1.58098 12.7998 3.53121V14.1328C12.7998 17.921 13.8223 20.8471 15.8673 22.9112C17.193 24.2338 18.8556 25.1327 20.855 25.6078C22.5467 26.0098 23.9998 24.5644 23.9998 22.8257Z" fill="#00819D"/>
</svg>
