<svg xmlns="http://www.w3.org/2000/svg" width="14" height="14" fill="none">
  <path fill="#1F1F1F" fill-rule="evenodd" d="M6.577.726c-5.512.538-7.852 7.013-3.908 10.812 3.79 3.65 10.139 1.225 10.595-4.046C13.588 3.745 10.25.368 6.577.726Zm.892.915c4.508.445 6.519 5.837 3.39 9.087-3.21 3.335-8.825 1.297-9.223-3.348-.275-3.216 2.612-6.057 5.833-5.74ZM6.836 4.24a.55.55 0 0 0-.132.088c-.145.135-.141.09-.141 1.805V7.73l.061.09c.106.156.196.204.376.204.181 0 .27-.048.376-.204l.062-.09V4.519l-.062-.09c-.121-.178-.364-.263-.54-.19Zm-.112 4.564c-.582.308-.326 1.164.334 1.116.588-.043.742-.847.213-1.117a.724.724 0 0 0-.547.001Z" clip-rule="evenodd"/>
</svg>
