<svg xmlns="http://www.w3.org/2000/svg" width="12" height="12" fill="none">
  <path fill="#1F1F1F" fill-rule="evenodd" d="M5.53.355c-.695.169-1.063.545-1.463 1.5-.434 1.034-.5 1.086-1.553 1.206-.73.083-.885.117-1.155.255-1.01.513-1.37 1.877-.746 2.835.065.099.35.404.688.739.85.84.86.867.64 1.972-.23 1.161-.127 1.68.447 2.25.78.776 1.599.799 2.72.076.496-.32.626-.374.892-.374s.396.054.892.374c1.121.723 1.94.7 2.72-.076.573-.57.676-1.089.446-2.25-.219-1.103-.208-1.135.631-1.961.823-.81.966-1.061.992-1.74.028-.731-.269-1.342-.841-1.73-.332-.225-.526-.279-1.357-.372-1.044-.116-1.118-.174-1.54-1.182-.263-.628-.374-.812-.643-1.068C6.858.39 6.144.206 5.53.355Zm.675.875c.423.068.598.273.946 1.106.51 1.222.841 1.461 2.253 1.624.953.11 1.296.35 1.375.96.062.482-.03.646-.768 1.37-1.015.993-1.123 1.335-.853 2.69.181.904.155 1.133-.166 1.476-.417.446-.86.444-1.562-.005-1.177-.752-1.68-.752-2.86 0-.703.45-1.146.45-1.562.005-.321-.343-.347-.572-.167-1.475.271-1.356.163-1.695-.853-2.692-.815-.8-.94-1.106-.68-1.674.205-.446.449-.564 1.37-.666 1.327-.147 1.676-.414 2.2-1.68.22-.531.256-.6.4-.752.18-.195.549-.346.763-.313l.164.026Z" clip-rule="evenodd"/>
</svg>
