<svg xmlns="http://www.w3.org/2000/svg" width="24" height="24" fill="none">
  <path fill="url(#a)" d="M12 22.4c5.588 0 10.118-4.656 10.118-10.4 0-5.744-4.53-10.4-10.118-10.4C6.41 1.6 1.88 6.256 1.88 12c0 5.744 4.531 10.4 10.12 10.4Z"/>
  <path stroke="#303030" stroke-linecap="round" stroke-linejoin="round" stroke-miterlimit="10" d="m7.08 8.8 2.481 1.968M16.9 8.8l-2.482 1.968"/>
  <path fill="#303030" d="M16.92 11.432c0 1.009-.424 1.845-.976 1.845-.53 0-.975-.836-.975-1.845 0-1.008.424-1.845.975-1.845.552 0 .976.837.976 1.845Z"/>
  <path stroke="#303030" stroke-linecap="round" stroke-width=".5" d="m16.268 12.71.531.49M16 12.122l1.02.358"/>
  <path fill="#303030" d="M7.301 11.432c0 1.009.424 1.845.975 1.845.53 0 .976-.836.976-1.845 0-1.008-.424-1.845-.976-1.845-.55 0-.975.837-.975 1.845Z"/>
  <path stroke="#303030" stroke-linecap="round" stroke-width=".5" d="m7.953 12.71-.532.49M8.221 12.122l-1.02.358"/>
  <path stroke="#5B0600" stroke-linecap="round" stroke-linejoin="round" stroke-miterlimit="10" d="M9.6 16s2.011-1.8 4.8 0"/>
  <defs>
    <linearGradient id="a" x1="12" x2="11.506" y1="1.6" y2="22.388" gradientUnits="userSpaceOnUse">
      <stop stop-color="#EB3E7D"/>
      <stop offset="0" stop-color="#FF4062"/>
      <stop offset=".141" stop-color="#F34F6D"/>
      <stop offset=".3" stop-color="#F86390"/>
      <stop offset=".551" stop-color="#E76493"/>
      <stop offset="1" stop-color="#FD7FB4"/>
    </linearGradient>
  </defs>
</svg>
