<svg xmlns="http://www.w3.org/2000/svg" width="24" height="24" fill="none">
  <g clip-path="url(#a)">
    <path fill="#D953DC" d="M.543 22.087V12.87L4.907 12l1.636.87.364 9.217-1.091 1.217-4.182-.174-1.091-1.043Z"/>
    <path fill="#FACCB4" d="M6.547 22.782V12.348l2.909-3.131 2.545-5.391.182-2.087.728-1.044 1.818.348 1.09 2.087-1.454 5.217.546 1.218 4.909-.348 2.727 1.043.363 2.783v4.348L21.82 20l-.91 2.26-2.727 1.218-11.636-.696Z"/>
    <path fill="#E2A88A" fill-rule="evenodd" d="M12.684.032c-.417.125-.74.445-.918.91-.14.363-.213.968-.176 1.463l.031.429-.286.698c-.947 2.308-2.12 4.517-3.015 5.68a8.519 8.519 0 0 1-.771.849 4.89 4.89 0 0 0-1.015 1.259l-.226.379-.324-.108c-.317-.105-.372-.107-2.233-.109-2.031 0-2.15.01-2.618.242-.411.204-.83.69-1.024 1.189-.087.223-.092.447-.106 4.53-.01 2.66.003 4.407.033 4.591.142.892.89 1.62 1.798 1.747.167.023 1.042.043 1.944.043 1.796 0 2.099-.031 2.533-.262l.24-.126.88.102c2.255.261 3.838.358 7.037.432 1.764.04 2.512.04 3.015 0 1.99-.16 3.482-.776 4.238-1.749.43-.553.603-1.063.61-1.798.005-.462.007-.472.162-.634.443-.464.777-1.034.91-1.552.11-.43.102-1.112-.017-1.566l-.096-.364.147-.208c.39-.553.604-1.255.556-1.83-.037-.454-.229-1.02-.466-1.377l-.196-.295.073-.207c.2-.575.2-1.302-.005-1.848-.13-.348-.49-.835-.804-1.09-1.194-.967-3.523-1.18-6.552-.6-.406.078-.768.141-.805.141-.054 0-.061-.074-.035-.4.039-.498.181-1.09.552-2.298.363-1.18.475-1.685.535-2.405.051-.619.013-1.161-.116-1.632-.288-1.053-1.154-1.89-2.236-2.159-.386-.095-1.041-.13-1.254-.067Zm1.02 1.409c.72.236 1.087.732 1.188 1.603.082.714-.058 1.526-.498 2.902-.463 1.448-.635 2.338-.597 3.093.045.88.452 1.361 1.151 1.362.095 0 .55-.074 1.013-.165 1.424-.28 1.795-.32 3.01-.324.894-.003 1.194.013 1.543.082 1.453.288 1.976 1.099 1.446 2.241-.239.515-.225.612.153 1.063.673.804.645 1.518-.093 2.372-.265.305-.29.554-.1.975.123.273.137.357.137.82.001.477-.01.538-.14.797-.097.193-.273.407-.564.685-.249.238-.436.46-.457.538-.019.073-.007.327.027.565.071.505.027.793-.178 1.16-.35.626-1.282 1.094-2.656 1.334-.403.071-.745.081-2.47.073-3.297-.016-5.838-.149-7.958-.416l-.217-.027.016-4.161c.01-2.907-.001-4.312-.04-4.66-.055-.496-.055-.5.083-.845.245-.611.51-.989 1.098-1.567.91-.894 1.639-1.958 2.553-3.728a39.908 39.908 0 0 0 1.54-3.346l.319-.785-.011-.694c-.006-.381.006-.772.027-.87.036-.162.051-.175.207-.175.092 0 .303.044.467.098Zm-8.02 11.507c.088.058.205.165.26.238.1.132.101.143.101 4.439v4.306l-.13.192c-.23.339-.288.347-2.29.331-1.676-.012-1.75-.017-1.878-.11a1.365 1.365 0 0 1-.233-.226c-.098-.129-.1-.17-.112-4.412l-.013-4.283.11-.203c.207-.38.196-.378 2.235-.378 1.777 0 1.792.001 1.95.106Z" clip-rule="evenodd"/>
    <path fill="#EB3E7D" d="M5.792 11.2H.608c-.336 0-.608.3-.608.67v11.45c0 .371.272.671.608.68h3.888c.745-.009 1.391-.483 1.703-1.173.129-.282.201-.6.201-.938V11.871c0-.37-.272-.671-.608-.671Z"/>
  </g>
  <defs>
    <clipPath id="a">
      <path fill="#fff" d="M0 0h24v24H0z"/>
    </clipPath>
  </defs>
</svg>
