<svg width="24" height="24" viewBox="0 0 24 24" fill="none" xmlns="http://www.w3.org/2000/svg">
<path d="M11.9996 22.4C17.588 22.4 22.1183 17.7437 22.1183 12C22.1183 6.25621 17.588 1.59998 11.9996 1.59998C6.41117 1.59998 1.88086 6.25621 1.88086 12C1.88086 17.7437 6.41117 22.4 11.9996 22.4Z" fill="url(#paint0_linear_862_4990)"/>
<path d="M10.4004 18.4C10.4004 18.4 11.7413 16.6 13.6004 18.4" stroke="#5B0600" stroke-miterlimit="10" stroke-linecap="round" stroke-linejoin="round"/>
<path d="M17.9737 13.6451L18.9662 16.3744C19.1692 16.9609 18.876 17.5925 18.2895 17.7955C17.703 17.9985 17.0715 17.7052 16.8685 17.1188C16.7782 16.8707 16.7782 16.6 16.8685 16.3744L17.8609 13.6451C17.8835 13.6225 17.906 13.6 17.9512 13.6C17.9512 13.6225 17.9737 13.6225 17.9737 13.6451Z" fill="#91B5E6"/>
<path d="M6.40039 12C6.40039 12 6.67081 12.8 8.00039 12.8C9.26236 12.8 9.60039 12 9.60039 12" stroke="#303030" stroke-miterlimit="10" stroke-linecap="round" stroke-linejoin="round"/>
<path d="M6.5 12L5.5 12.5" stroke="#303030" stroke-width="0.5" stroke-linecap="round"/>
<path d="M6.5 12.5L6 13" stroke="#303030" stroke-width="0.5" stroke-linecap="round"/>
<path d="M17.1992 12C17.1992 12 16.9288 12.8 15.5992 12.8C14.3372 12.8 13.9992 12 13.9992 12" stroke="#303030" stroke-miterlimit="10" stroke-linecap="round" stroke-linejoin="round"/>
<path d="M17.0996 12L18.0996 12.5" stroke="#303030" stroke-width="0.5" stroke-linecap="round"/>
<path d="M17.0996 12.5L17.5996 13" stroke="#303030" stroke-width="0.5" stroke-linecap="round"/>
<defs>
<linearGradient id="paint0_linear_862_4990" x1="3.22379" y1="17.205" x2="20.9986" y2="7.22032" gradientUnits="userSpaceOnUse">
<stop stop-color="#EB3E7D"/>
<stop offset="0.0001" stop-color="#EB3E7D"/>
<stop offset="0.033108" stop-color="#F84E8C"/>
<stop offset="0.1781" stop-color="#F86399"/>
<stop offset="0.5514" stop-color="#E76493"/>
<stop offset="1" stop-color="#FD7FB4"/>
</linearGradient>
</defs>
</svg>
