<svg xmlns="http://www.w3.org/2000/svg" width="15" height="15" fill="none">
  <g clip-path="url(#a)">
    <path fill="#D953DC" d="M.34 13.804v-5.76L3.067 7.5l1.023.543.227 5.761-.682.761-2.613-.108-.682-.653Z"/>
    <path fill="#FACCB4" d="M4.092 14.239V7.717L5.91 5.761 7.5 2.39l.115-1.304.454-.652 1.136.217.682 1.304-.909 3.261.341.761 3.068-.217 1.705.652.227 1.739v2.717l-.682 1.63-.568 1.414-1.705.76-7.272-.434Z"/>
    <path fill="#E2A88A" fill-rule="evenodd" d="M7.927.02c-.26.078-.462.278-.574.569-.087.227-.132.605-.11.914l.02.268-.179.436C6.493 3.65 5.76 5.031 5.2 5.757a5.32 5.32 0 0 1-.482.53c-.29.272-.429.444-.634.788l-.142.237-.202-.068c-.198-.065-.233-.067-1.396-.068-1.27 0-1.343.007-1.636.152-.257.127-.519.43-.64.742-.054.14-.058.28-.066 2.831-.006 1.663.002 2.755.02 2.87a1.337 1.337 0 0 0 1.124 1.092c.105.015.652.027 1.215.027 1.123 0 1.312-.02 1.584-.164l.149-.079.55.064c1.41.164 2.4.224 4.399.27 1.102.025 1.57.025 1.884 0 1.244-.1 2.176-.485 2.649-1.093.268-.345.377-.664.381-1.124.003-.289.004-.295.101-.396.277-.29.486-.646.569-.97a2.26 2.26 0 0 0-.011-.979l-.06-.227.092-.13c.244-.346.378-.784.348-1.144a2.025 2.025 0 0 0-.291-.86l-.123-.185.045-.13a1.801 1.801 0 0 0-.003-1.154 1.899 1.899 0 0 0-.502-.681c-.746-.605-2.202-.738-4.095-.376-.254.049-.48.089-.503.089-.034 0-.038-.046-.022-.25.024-.312.113-.681.345-1.437.226-.738.297-1.053.334-1.503a2.947 2.947 0 0 0-.072-1.02A1.934 1.934 0 0 0 8.71.062C8.47.002 8.061-.02 7.927.02Zm.638.88c.45.148.68.458.742 1.003.051.446-.036.953-.31 1.813-.29.905-.398 1.462-.374 1.933.028.55.283.851.72.852.059 0 .344-.047.633-.104.89-.175 1.122-.2 1.881-.202.558-.002.746.008.964.052.908.18 1.236.686.904 1.4-.15.322-.14.383.096.664.42.503.402.949-.059 1.483-.165.19-.18.346-.062.61.077.17.085.222.086.512 0 .298-.006.336-.088.498-.06.12-.17.254-.352.428-.156.149-.273.287-.286.336-.012.046-.004.205.017.353.044.316.017.496-.112.725-.219.391-.8.684-1.66.834-.251.044-.465.05-1.543.046-2.061-.01-3.649-.093-4.974-.26l-.136-.017.01-2.601c.007-1.817 0-2.695-.024-2.912-.035-.31-.035-.313.052-.528.152-.383.318-.619.685-.98.57-.559 1.025-1.224 1.597-2.33.357-.692.677-1.387.962-2.091l.199-.49-.007-.434a4.115 4.115 0 0 1 .017-.544c.022-.101.032-.11.13-.11.057 0 .189.028.292.062ZM3.552 8.093a.798.798 0 0 1 .163.15c.063.082.063.089.063 2.774v2.691l-.081.12c-.144.212-.18.217-1.431.207-1.048-.008-1.094-.01-1.174-.069a.851.851 0 0 1-.146-.141c-.061-.08-.062-.107-.07-2.758L.868 8.389l.07-.127c.128-.237.121-.236 1.396-.236 1.11 0 1.12 0 1.218.066Z" clip-rule="evenodd"/>
    <path fill="#EB3E7D" d="M3.62 7H.38C.17 7 0 7.188 0 7.42v7.155c0 .232.17.42.38.425h2.43c.466-.005.87-.302 1.065-.733.08-.176.125-.376.125-.586V7.419C4 7.188 3.83 7 3.62 7Z"/>
  </g>
  <defs>
    <clipPath id="a">
      <path fill="#fff" d="M0 0h15v15H0z"/>
    </clipPath>
  </defs>
</svg>
