<svg xmlns="http://www.w3.org/2000/svg" width="15" height="15" fill="none">
  <path fill="#EB3E7D" fill-rule="evenodd" d="M3.927 1.009c-.757.095-1.372.308-1.928.666A4.295 4.295 0 0 0 .208 3.982C-.347 5.698.202 7.47 1.928 9.53c.334.398 1.437 1.499 1.91 1.907.832.714 1.743 1.4 2.684 2.022.856.565.952.603 1.203.49.192-.088 1.332-.854 1.917-1.289 1.058-.787 1.812-1.435 2.63-2.262 1.56-1.577 2.406-2.961 2.673-4.368.073-.388.073-1.138 0-1.51-.35-1.761-1.65-3.068-3.433-3.448-.395-.084-1.217-.09-1.615-.013a4.501 4.501 0 0 0-2.135 1.046l-.256.224-.272-.235a5.97 5.97 0 0 0-.472-.368 4.654 4.654 0 0 0-1.652-.664c-.256-.046-.984-.078-1.183-.053Z" clip-rule="evenodd"/>
</svg>
