<svg xmlns="http://www.w3.org/2000/svg" width="15" height="15" fill="none">
  <path fill="url(#a)" d="M7.5 14c3.493 0 6.324-2.91 6.324-6.5S10.993 1 7.5 1 1.176 3.91 1.176 7.5 4.007 14 7.5 14Z"/>
  <path stroke="#5B0600" stroke-linecap="round" stroke-linejoin="round" stroke-miterlimit="10" d="M6.5 11.5s.838-1.125 2 0"/>
  <path fill="#91B5E6" d="m11.233 8.528.62 1.706a.69.69 0 0 1-.422.888.69.69 0 0 1-.889-.423.66.66 0 0 1 0-.465l.62-1.706c.015-.014.029-.028.057-.028 0 .014.014.014.014.028Z"/>
  <path stroke="#303030" stroke-linecap="round" stroke-linejoin="round" stroke-miterlimit="10" d="M4 7.5s.169.5 1 .5c.789 0 1-.5 1-.5"/>
  <path stroke="#303030" stroke-linecap="round" stroke-width=".5" d="m4.063 7.5-.625.313M4.063 7.813l-.313.312"/>
  <path stroke="#303030" stroke-linecap="round" stroke-linejoin="round" stroke-miterlimit="10" d="M10.75 7.5s-.169.5-1 .5c-.789 0-1-.5-1-.5"/>
  <path stroke="#303030" stroke-linecap="round" stroke-width=".5" d="m10.688 7.5.624.313M10.688 7.813l.312.312"/>
  <defs>
    <linearGradient id="a" x1="2.015" x2="13.124" y1="10.753" y2="4.513" gradientUnits="userSpaceOnUse">
      <stop stop-color="#EB3E7D"/>
      <stop offset="0" stop-color="#EB3E7D"/>
      <stop offset=".033" stop-color="#F84E8C"/>
      <stop offset=".178" stop-color="#F86399"/>
      <stop offset=".551" stop-color="#E76493"/>
      <stop offset="1" stop-color="#FD7FB4"/>
    </linearGradient>
  </defs>
</svg>
