<svg xmlns="http://www.w3.org/2000/svg" width="15" height="15" fill="none">
  <g clip-path="url(#a)">
    <path fill="#FFD15C" d="M9.263 11.48a3.533 3.533 0 0 1 1.065-1.632 4.288 4.288 0 0 0 1.535-3.294c0-2.447-2.036-4.454-4.543-4.329C5.096 2.32 3.28 4.202 3.216 6.43a4.3 4.3 0 0 0 1.535 3.42c.533.439.909 1.003 1.097 1.63h3.415Z"/>
    <path fill="#fff" d="M7.147 11.556h.28l-1.243-4.67h.094a.61.61 0 0 0 .434-.189.28.28 0 0 1 .218-.094.28.28 0 0 1 .217.094c.218.25.59.25.808 0a.28.28 0 0 1 .218-.094c.062 0 .155.031.217.094a.562.562 0 0 0 .435.188h.093l-1.211 4.671h.28l1.273-4.89c0-.063 0-.126-.062-.157s-.124 0-.155.031c-.063.063-.125.094-.187.094-.093 0-.155-.031-.248-.094-.125-.125-.249-.188-.404-.188-.156 0-.28.063-.404.188a.298.298 0 0 1-.435 0 .5.5 0 0 0-.404-.188.5.5 0 0 0-.404.188.35.35 0 0 1-.248.094c-.063 0-.156-.031-.187-.094-.03-.031-.093-.062-.155-.031s-.093.094-.062.157l1.242 4.89Z"/>
    <path fill="#EB3E7D" d="M6.563 14.344c.156.375.53.656.968.656.438 0 .813-.281.969-.656H6.562Z"/>
    <path fill="#EB3E7D" d="M8.688 14.375H6.406a.56.56 0 0 1-.562-.562v-2.375H9.25v2.375a.56.56 0 0 1-.562.562Z"/>
    <path fill="#FFD15C" d="M7.531 0a.313.313 0 0 0-.312.313v1.062c0 .156.125.313.312.313.188 0 .313-.125.313-.313V.313A.313.313 0 0 0 7.53 0ZM3.344 1.906a.302.302 0 0 0-.438 0 .302.302 0 0 0 0 .438l.75.75a.302.302 0 0 0 .438 0 .302.302 0 0 0 0-.438l-.75-.75ZM2.375 6.219H1.313a.313.313 0 0 0 0 .625h1.062a.313.313 0 0 0 .313-.313.336.336 0 0 0-.313-.312ZM3.656 9.969l-.75.75a.302.302 0 0 0 0 .437.302.302 0 0 0 .438 0l.75-.75a.302.302 0 0 0 0-.437.302.302 0 0 0-.438 0ZM11.406 9.969a.302.302 0 0 0-.437 0 .302.302 0 0 0 0 .437l.75.75a.302.302 0 0 0 .437 0 .302.302 0 0 0 0-.437l-.75-.75ZM13.752 6.219h-1.063a.313.313 0 0 0 0 .625h1.063a.313.313 0 0 0 0-.625ZM11.719 1.906l-.75.75a.302.302 0 0 0 0 .438.302.302 0 0 0 .437 0l.75-.75a.302.302 0 0 0 0-.438.302.302 0 0 0-.437 0Z"/>
  </g>
  <defs>
    <clipPath id="a">
      <path fill="#fff" d="M0 0h15v15H0z"/>
    </clipPath>
  </defs>
</svg>
