<svg width="15" height="15" viewBox="0 0 15 15" fill="none" xmlns="http://www.w3.org/2000/svg">
<g clip-path="url(#clip0_860_4994)">
<path d="M14.6602 1.19565L14.6602 6.95652L11.9329 7.5L10.9102 6.95652L10.6829 1.19565L11.3647 0.434783L13.9783 0.543479L14.6602 1.19565Z" fill="#00819D"/>
<path d="M10.9082 0.762057L10.9082 7.2838L9.09002 9.24032L7.49911 12.6099L7.38548 13.9142L6.93093 14.5664L5.79457 14.349L5.11275 13.0447L6.02184 9.7838L5.68093 9.02293L2.61275 9.24032L0.908202 8.58815L0.680929 6.84902L0.680928 4.13162L1.36275 2.50119L1.93093 1.08815L3.63547 0.327275L10.9082 0.762057Z" fill="#FACCB4"/>
<path fill-rule="evenodd" clip-rule="evenodd" d="M7.0726 14.9798C7.3332 14.9018 7.53469 14.7022 7.64653 14.4112C7.7338 14.1843 7.77923 13.8064 7.7565 13.4968L7.73685 13.2288L7.91564 12.7927C8.50718 11.3499 9.24011 9.96934 9.80015 9.2429C9.92278 9.08384 10.1396 8.84502 10.282 8.71216C10.5727 8.44089 10.7109 8.26945 10.9165 7.92499L11.0577 7.68837L11.2603 7.75558C11.4579 7.82108 11.4926 7.82279 12.6557 7.82352C13.9251 7.82434 13.9991 7.81748 14.292 7.67229C14.549 7.54492 14.8107 7.24121 14.9321 6.92954C14.9864 6.79014 14.9896 6.64986 14.9982 4.09865C15.0038 2.43561 14.996 1.34368 14.9776 1.22845C14.8886 0.67101 14.4208 0.216747 13.8536 0.136925C13.7491 0.122228 13.2023 0.110142 12.6386 0.110083C11.5164 0.109995 11.3272 0.129532 11.0554 0.273453L10.906 0.352601L10.3555 0.288796C8.94598 0.125426 7.9567 0.0647303 5.95725 0.0189379C4.8548 -0.00632007 4.38733 -0.00631907 4.07316 0.0189972C2.82891 0.119208 1.89718 0.503593 1.42417 1.11184C1.15545 1.45741 1.04738 1.77603 1.04295 2.23584C1.04017 2.5247 1.03864 2.53078 0.94202 2.63187C0.664985 2.92185 0.455988 3.27831 0.373389 3.60182C0.304749 3.87065 0.309361 4.29673 0.384 4.58075L0.443778 4.80825L0.351985 4.93809C0.107718 5.28355 -0.0256451 5.72232 0.0041086 6.08245C0.0275013 6.36589 0.147329 6.71968 0.295372 6.94263L0.417914 7.12712L0.372575 7.25658C0.246929 7.61547 0.248045 8.0702 0.37547 8.411C0.456862 8.62875 0.681354 8.93317 0.877932 9.09238C1.62436 9.69695 3.08032 9.83034 4.97339 9.46755C5.22664 9.41903 5.45282 9.37925 5.47601 9.37919C5.51034 9.3791 5.51447 9.42545 5.49831 9.62986C5.47374 9.94094 5.38488 10.3104 5.15294 11.0659C4.92649 11.8035 4.85637 12.119 4.81893 12.5691C4.78676 12.9556 4.81076 13.2947 4.8911 13.5887C5.07097 14.2471 5.61278 14.77 6.28888 14.9379C6.53007 14.9978 6.9395 15.0197 7.0726 14.9798ZM6.43544 14.0994C5.9851 13.9518 5.75536 13.6418 5.69278 13.0974C5.6415 12.6514 5.72856 12.1437 6.00379 11.2836C6.29325 10.379 6.40065 9.82222 6.37663 9.35062C6.34865 8.80107 6.09423 8.49982 5.65751 8.49918C5.59815 8.49909 5.31328 8.54559 5.02446 8.6025C4.13445 8.77793 3.90218 8.80292 3.14281 8.80506C2.58464 8.80665 2.39672 8.79658 2.17882 8.75349C1.2707 8.57387 0.943469 8.06689 1.27477 7.35286C1.42408 7.03105 1.41539 6.9705 1.17941 6.68861C0.758948 6.18624 0.776523 5.74025 1.23784 5.20645C1.40288 5.01548 1.4188 4.85982 1.30015 4.59654C1.22337 4.42612 1.21457 4.37361 1.21405 4.08398C1.21354 3.78605 1.22029 3.74786 1.30184 3.58598C1.36255 3.46544 1.47267 3.3317 1.65423 3.15803C1.80985 3.00915 1.92714 2.87116 1.93983 2.82205C1.95165 2.7762 1.9442 2.61729 1.92325 2.46888C1.87876 2.15343 1.9064 1.97343 2.03455 1.74429C2.25356 1.35269 2.83536 1.06012 3.69423 0.909658C3.9464 0.865478 4.16001 0.859229 5.23792 0.864509C7.29908 0.874572 8.88674 0.957503 10.2119 1.12428L10.3476 1.14135L10.3377 3.74208C10.3309 5.5588 10.3383 6.43673 10.3624 6.65432C10.3969 6.96451 10.3967 6.96668 10.3104 7.18236C10.1576 7.56452 9.99226 7.80064 9.62467 8.1617C9.05553 8.72069 8.6 9.38573 8.02847 10.492C7.67074 11.1844 7.35078 11.8794 7.06572 12.5833L6.867 13.0739L6.87394 13.5073C6.87774 13.7457 6.87005 13.9903 6.85687 14.0508C6.83472 14.1524 6.82489 14.1608 6.72779 14.1608C6.67 14.1608 6.53842 14.1332 6.43544 14.0994ZM11.4476 6.90754C11.3928 6.87122 11.3195 6.80428 11.2848 6.75872C11.2219 6.67608 11.2218 6.66937 11.2218 3.98436L11.2218 1.29281L11.303 1.1733C11.4471 0.961463 11.4833 0.956242 12.7344 0.965952C13.7817 0.974078 13.8283 0.976807 13.9082 1.03489C13.954 1.06816 14.0194 1.13182 14.0536 1.17638C14.1152 1.25661 14.1158 1.28248 14.1237 3.93399L14.1317 6.61058L14.0627 6.73763C13.9339 6.97469 13.9407 6.97355 12.6661 6.97355C11.5554 6.97355 11.5465 6.97308 11.4476 6.90754Z" fill="#E2A88A"/>
<path d="M11.3797 8L14.6203 8C14.8299 8 15 7.81214 15 7.5807L15 0.424603C15 0.192882 14.8299 0.00530054 14.6203 -9.20476e-07L12.1899 -7.08006e-07C11.7243 0.00530081 11.3205 0.301892 11.1253 0.732941C11.0451 0.909334 11 1.10863 11 1.31912L11 7.5807C11 7.81217 11.1701 8 11.3797 8Z" fill="#00819D"/>
</g>
<defs>
<clipPath id="clip0_860_4994">
<rect width="15" height="15" fill="white"/>
</clipPath>
</defs>
</svg>
