<svg xmlns="http://www.w3.org/2000/svg" width="15" height="15" fill="none">
  <g clip-path="url(#a)">
    <path fill="#00819D" d="M14.66 1.196v5.76l-2.727.544-1.023-.543-.227-5.761.682-.761 2.613.108.682.653Z"/>
    <path fill="#FACCB4" d="M10.908.762v6.522L9.09 9.24 7.5 12.61l-.115 1.304-.454.652-1.136-.217-.682-1.304.909-3.261-.341-.761-3.068.217-1.705-.652L.681 6.85V4.132l.682-1.63.568-1.414 1.704-.76 7.273.434Z"/>
    <path fill="#E2A88A" fill-rule="evenodd" d="M7.073 14.98c.26-.078.462-.278.574-.569.087-.227.132-.605.11-.914l-.02-.268.179-.436C8.507 11.35 9.24 9.969 9.8 9.243c.123-.16.34-.398.482-.53.29-.272.429-.444.634-.788l.142-.237.202.068c.198.065.233.067 1.396.068 1.27 0 1.343-.007 1.636-.152.257-.127.519-.43.64-.742.054-.14.058-.28.066-2.831.006-1.663-.002-2.755-.02-2.87A1.338 1.338 0 0 0 13.854.136 18.283 18.283 0 0 0 12.639.11c-1.123 0-1.312.02-1.584.163l-.149.08-.55-.064c-1.41-.164-2.4-.224-4.399-.27-1.102-.025-1.57-.025-1.884 0-1.244.1-2.176.485-2.649 1.093-.269.345-.377.664-.381 1.124-.003.289-.004.295-.101.396-.277.29-.486.646-.569.97-.068.269-.064.695.011.979l.06.227-.092.13c-.244.346-.378.784-.348 1.144.024.284.143.638.291.86l.123.185-.045.13c-.126.358-.125.813.002 1.154.082.218.306.522.503.681.746.605 2.202.738 4.095.376.254-.049.48-.089.503-.089.034 0 .038.046.022.25-.024.312-.113.681-.345 1.437-.227.737-.297 1.053-.334 1.503-.032.387-.008.726.072 1.02.18.658.722 1.181 1.398 1.349.241.06.65.082.784.042Zm-.638-.88c-.45-.148-.68-.458-.742-1.003-.051-.446.036-.953.31-1.813.29-.905.398-1.462.374-1.933-.028-.55-.283-.851-.72-.852-.059 0-.344.047-.633.103-.89.176-1.122.2-1.881.203-.558.002-.746-.008-.964-.052-.908-.18-1.236-.686-.904-1.4.15-.322.14-.382-.096-.664-.42-.503-.402-.949.059-1.483.165-.19.18-.346.062-.61-.077-.17-.085-.222-.086-.512 0-.298.006-.336.088-.498.06-.12.17-.254.352-.428.156-.149.273-.287.286-.336a1.425 1.425 0 0 0-.017-.353c-.044-.316-.017-.496.112-.725.219-.391.8-.684 1.66-.834.251-.045.465-.05 1.543-.045 2.061.01 3.649.093 4.974.26l.136.016-.01 2.601c-.007 1.817 0 2.695.024 2.912.035.31.035.313-.052.528-.152.383-.318.619-.685.98-.57.559-1.025 1.224-1.597 2.33a24.96 24.96 0 0 0-.962 2.091l-.199.49.007.434c.004.239-.004.483-.017.544-.022.101-.032.11-.13.11-.057 0-.189-.028-.292-.062Zm5.013-7.192a.799.799 0 0 1-.163-.15c-.063-.082-.063-.089-.063-2.774V1.293l.081-.12c.144-.212.18-.217 1.431-.207 1.048.008 1.094.01 1.174.069a.85.85 0 0 1 .146.141c.061.08.062.106.07 2.758l.008 2.677-.07.127c-.128.237-.121.236-1.396.236-1.11 0-1.12 0-1.218-.066Z" clip-rule="evenodd"/>
    <path fill="#00819D" d="M11.38 8h3.24c.21 0 .38-.188.38-.42V.426c0-.232-.17-.42-.38-.425h-2.43c-.466.005-.87.302-1.065.733-.08.176-.125.376-.125.586v6.262c0 .231.17.419.38.419Z"/>
  </g>
  <defs>
    <clipPath id="a">
      <path fill="#fff" d="M0 0h15v15H0z"/>
    </clipPath>
  </defs>
</svg>
