<svg xmlns="http://www.w3.org/2000/svg" width="15" height="15" fill="none">
  <path fill="#F5581F" d="M6.772 14.99s-9.276.78-3.22-10.849c0 0 .21 3.781 1.044 3.177C5.972 6.322 3.574 2.543 8.792 0c0 0-.73 4.057 2.147 6.9 0 0-.3-2.09 1.89-3.47 0 0-1.418 2.09.085 5.144.712 1.447 2.231 6.415-6.142 6.415Z"/>
  <path fill="#F98D25" d="M5.714 7.342s.632.616.593 1.116c0 0 1.542-1.846 1.542-4.37 0 0 3.085 4.64 2.689 8.068 0 0 .791-.27.87-1.04 0 0 .435 3.88-3.639 3.88-4.073 0-4.784-2.845-3.795-4.227.465-.65 2.175-1.155 1.74-3.427Z"/>
  <path fill="#FFF200" d="M8.192 9.263s2.61 4.999-.283 5.669c-2.268.525-2.927-2.302-1.235-3.47 1.693-1.168 1.518-2.199 1.518-2.199Z"/>
</svg>
