<svg xmlns="http://www.w3.org/2000/svg" width="15" height="15" fill="none">
  <path fill="url(#a)" d="M7.5 14c3.493 0 6.324-2.91 6.324-6.5S10.993 1 7.5 1 1.176 3.91 1.176 7.5 4.007 14 7.5 14Z"/>
  <path fill="#fff" d="M7.5 10.778c1.925 0 3.52-1.47 3.794-3.391a.484.484 0 0 0-.495-.565H4.146c-.275 0-.495.282-.495.565.33 1.922 1.925 3.391 3.85 3.391Z"/>
  <path fill="#303030" d="M6.484 4.617C6.241 3.94 5.652 3.5 4.993 3.5c-.65 0-1.228.429-1.471 1.083-.05.124-.01.27.091.35.102.078.233.067.325-.034.477-.52 1.238-.937 2.13.022.051.056.112.079.183.079.05 0 .101-.011.142-.045.091-.068.132-.214.091-.338ZM11.478 4.617C11.235 3.94 10.648 3.5 9.99 3.5c-.648 0-1.225.429-1.468 1.083-.05.124-.01.27.09.35.102.078.234.067.325-.034.476-.52 1.235-.937 2.126.022.05.056.111.079.182.079.051 0 .102-.011.142-.045.101-.068.142-.214.091-.338Z"/>
  <defs>
    <linearGradient id="a" x1="2.015" x2="13.124" y1="10.753" y2="4.513" gradientUnits="userSpaceOnUse">
      <stop stop-color="#EBB34D"/>
      <stop offset=".033" stop-color="#ECB64D"/>
      <stop offset=".178" stop-color="#EEC04F"/>
      <stop offset=".551" stop-color="#F1CC51"/>
      <stop offset="1" stop-color="#F3D652"/>
    </linearGradient>
  </defs>
</svg>
