<svg xmlns="http://www.w3.org/2000/svg" width="15" height="15" fill="none">
  <path fill="url(#a)" d="M7.5 14c3.493 0 6.324-2.91 6.324-6.5S10.993 1 7.5 1 1.176 3.91 1.176 7.5 4.007 14 7.5 14Z"/>
  <path fill="#303030" d="M7.5 12.1c.83 0 1.501-1.142 1.501-2.55C9.001 8.14 8.33 7 7.501 7 6.67 7 6 8.141 6 9.55c0 1.408.672 2.55 1.5 2.55Z"/>
  <path fill="#F06669" d="M8.769 10.917c-1.096-.604-1.985-.259-2.503.08.272.664.723 1.102 1.235 1.102.53 0 1.002-.471 1.268-1.182Z"/>
  <path fill="#fff" d="M6.003 6.957c.497-.964.32-2.017-.396-2.352-.715-.334-1.697.177-2.194 1.141-.497.965-.32 2.018.396 2.352.715.335 1.697-.176 2.194-1.14ZM11.205 8.1c.715-.335.892-1.388.396-2.352-.497-.965-1.48-1.476-2.195-1.141-.715.334-.892 1.387-.395 2.351.497.965 1.479 1.476 2.194 1.141Z"/>
  <path fill="#414042" d="M10.548 3.979a.272.272 0 0 1-.275-.275V.274c0-.153.121-.274.275-.274.154 0 .275.12.275.275v3.429a.287.287 0 0 1-.275.275ZM11.812 3.418a.272.272 0 0 1-.275-.275V.67c0-.153.121-.274.275-.274.154 0 .275.12.275.274v2.473c0 .154-.121.275-.275.275ZM13.087 5.243a.272.272 0 0 1-.274-.275V1.275c0-.154.12-.275.274-.275.154 0 .275.121.275.275v3.693c0 .154-.12.275-.275.275Z"/>
  <defs>
    <linearGradient id="a" x1="2.015" x2="13.124" y1="10.753" y2="4.513" gradientUnits="userSpaceOnUse">
      <stop stop-color="#EBB34D"/>
      <stop offset=".033" stop-color="#ECB64D"/>
      <stop offset=".178" stop-color="#EEC04F"/>
      <stop offset=".551" stop-color="#F1CC51"/>
      <stop offset="1" stop-color="#F3D652"/>
    </linearGradient>
  </defs>
</svg>
